<?xml version="1.0" encoding="UTF-8" standalone="no"?>
<!-- Created with Inkscape (http://www.inkscape.org/) -->

<svg
   xmlns:dc="http://purl.org/dc/elements/1.1/"
   xmlns:cc="http://creativecommons.org/ns#"
   xmlns:rdf="http://www.w3.org/1999/02/22-rdf-syntax-ns#"
   xmlns:svg="http://www.w3.org/2000/svg"
   xmlns="http://www.w3.org/2000/svg"
   xmlns:sodipodi="http://sodipodi.sourceforge.net/DTD/sodipodi-0.dtd"
   xmlns:inkscape="http://www.inkscape.org/namespaces/inkscape"
   width="600px"
   height="300px"
   viewBox="0 0 158.75 79.375002"
   version="1.1"
   id="svg8"
   inkscape:version="0.92.3 (2405546, 2018-03-11)"
   sodipodi:docname="path.svg">
  <defs
     id="defs2" />
  <sodipodi:namedview
     id="base"
     pagecolor="#ffffff"
     bordercolor="#666666"
     borderopacity="1.0"
     inkscape:pageopacity="0.0"
     inkscape:pageshadow="2"
     inkscape:zoom="1"
     inkscape:cx="298.32844"
     inkscape:cy="223.09503"
     inkscape:document-units="mm"
     inkscape:current-layer="layer1"
     showgrid="false"
     units="px"
     inkscape:window-width="1920"
     inkscape:window-height="1003"
     inkscape:window-x="-9"
     inkscape:window-y="-9"
     inkscape:window-maximized="1" />
  <metadata
     id="metadata5">
    <rdf:RDF>
      <cc:Work
         rdf:about="">
        <dc:format>image/svg+xml</dc:format>
        <dc:type
           rdf:resource="http://purl.org/dc/dcmitype/StillImage" />
        <dc:title></dc:title>
      </cc:Work>
    </rdf:RDF>
  </metadata>
  <g
     inkscape:label="Layer 1"
     inkscape:groupmode="layer"
     id="layer1"
     transform="translate(0,-217.62499)">
    <path
       style="fill:none;stroke:#000000;stroke-width:0.26458332px;stroke-linecap:butt;stroke-linejoin:miter;stroke-opacity:1"
       d="m 11.377083,262.07499 c 0.352778,-0.26458 0.767951,-0.46189 1.058333,-0.79375 1.387774,-1.58603 0.374879,-0.8269 1.058334,-1.85208 0.06919,-0.10378 0.208804,-0.15303 0.264583,-0.26459 0.03944,-0.0789 -0.03944,-0.1857 0,-0.26458 0.111558,-0.22312 0.417609,-0.30605 0.529167,-0.52917 0.03944,-0.0789 -0.06236,-0.20222 0,-0.26458 0.06236,-0.0624 0.20222,0.0624 0.264583,0 0.06236,-0.0624 -0.03944,-0.1857 0,-0.26458 0.05578,-0.11156 0.208804,-0.15303 0.264583,-0.26459 0.03944,-0.0789 -0.03944,-0.1857 0,-0.26458 0.05578,-0.11156 0.208805,-0.15302 0.264584,-0.26458 0.03944,-0.0789 -0.06236,-0.20222 0,-0.26459 0.547432,-0.54743 -0.0214,0.83655 0.529166,-0.26458 0.07888,-0.15777 -0.07888,-0.3714 0,-0.52917 0.111559,-0.22311 0.417609,-0.30605 0.529167,-0.52916 0.03944,-0.0789 -0.03944,-0.1857 0,-0.26459 0.05578,-0.11156 0.208804,-0.15302 0.264583,-0.26458 0.07888,-0.15777 -0.124725,-0.40444 0,-0.52917 0.06236,-0.0624 0.202221,0.0624 0.264584,0 0.139447,-0.13945 0.146258,-0.3714 0.264583,-0.52916 0.149671,-0.19957 0.352778,-0.35278 0.529167,-0.52917 0.206662,-0.20666 0.641544,-0.56544 0.79375,-0.79375 0.109391,-0.16409 0.125135,-0.38972 0.264583,-0.52917 0.06236,-0.0624 0.225142,0.0789 0.264583,0 0.07888,-0.15776 -0.05578,-0.36183 0,-0.52916 0.175503,-0.52651 0.246945,-0.12348 0.529167,-0.26459 0.585008,-0.2925 0.08211,-0.16421 0.264583,-0.52916 0.111558,-0.22312 0.417609,-0.30606 0.529167,-0.52917 0.03944,-0.0789 -0.06236,-0.20222 0,-0.26458 0.06236,-0.0624 0.202221,0.0624 0.264583,0 0.06236,-0.0624 -0.03944,-0.1857 0,-0.26459 0.111558,-0.22311 0.417609,-0.30605 0.529167,-0.52916 0.182478,-0.36496 -0.320425,-0.23667 0.264583,-0.52917 0.07888,-0.0394 0.180915,0.0279 0.264584,0 0.187088,-0.0624 0.352777,-0.17639 0.529166,-0.26458 0.176389,-0.0882 0.365079,-0.1552 0.529167,-0.26459 0.103778,-0.0692 0.153024,-0.2088 0.264583,-0.26458 0.07888,-0.0394 0.185701,0.0394 0.264584,0 0.111559,-0.0558 0.153024,-0.2088 0.264583,-0.26458 0.211667,-0.10584 0.582083,0.10583 0.79375,0 0.111559,-0.0558 0.153024,-0.20881 0.264583,-0.26459 0.07888,-0.0394 0.202221,0.0624 0.264584,0 0.06236,-0.0624 -0.06236,-0.20222 0,-0.26458 0.06236,-0.0624 0.176389,0 0.264583,0 0.17639,0 0.371401,0.0789 0.529167,0 0.07888,-0.0394 -0.06236,-0.20222 0,-0.26458 0.124724,-0.12473 0.404442,0.12472 0.529166,0 0.547434,-0.54744 -0.836549,0.0214 0.264584,-0.52917 0.157765,-0.0789 0.404442,0.12472 0.529166,0 0.06236,-0.0624 -0.06236,-0.20222 0,-0.26458 0.124725,-0.12473 0.404442,0.12472 0.529167,0 0.06236,-0.0624 -0.06236,-0.20222 0,-0.26459 0.09287,-0.0929 1.140161,0.0914 1.322917,0 0.111559,-0.0558 0.153024,-0.2088 0.264583,-0.26458 0.07888,-0.0394 0.17639,0 0.264583,0 0.08819,0 0.17639,0 0.264584,0 0.440973,0 0.881943,0 1.322916,0 0.97014,0 1.940277,0 2.910417,0 0.184028,0 1.227235,-0.0478 1.322917,0 0.111558,0.0558 0.153024,0.2088 0.264583,0.26458 0.07888,0.0394 0.1857,-0.0394 0.264583,0 0.111559,0.0558 0.153025,0.20881 0.264584,0.26459 0.166917,0.0834 1.155998,-0.0835 1.322916,0 0.111559,0.0558 0.153025,0.2088 0.264583,0.26458 0.07888,0.0394 0.185701,-0.0394 0.264584,0 0.223115,0.11156 0.306051,0.41761 0.529166,0.52917 0.157766,0.0789 0.371401,-0.0789 0.529167,0 0.223115,0.11156 0.306052,0.4176 0.529167,0.52916 0.157766,0.0789 0.404442,-0.12472 0.529166,0 0.06236,0.0624 -0.03944,0.1857 0,0.26459 0.550567,1.10113 -0.01826,-0.28285 0.529167,0.26458 0.06236,0.0624 -0.06236,0.20222 0,0.26458 0.06236,0.0624 0.180914,-0.0279 0.264583,0 0.18709,0.0624 0.389718,0.12514 0.529167,0.26459 0.547434,0.54743 -0.836549,-0.0214 0.264583,0.52916 0.07888,0.0394 0.202221,-0.0624 0.264584,0 0.547433,0.54744 -0.836549,-0.0214 0.264583,0.52917 0.364956,0.18248 0.236662,-0.32042 0.529167,0.26458 0.03944,0.0789 -0.06236,0.20222 0,0.26459 0.547433,0.54743 -0.02141,-0.83655 0.529166,0.26458 0.182478,0.36496 -0.320423,0.23666 0.264584,0.52917 0.07888,0.0394 0.202221,-0.0624 0.264583,0 0.06236,0.0624 -0.03944,0.1857 0,0.26458 0.15875,0.3175 0.635,0.47625 0.79375,0.79375 0.03944,0.0789 -0.06236,0.20222 0,0.26458 0.06236,0.0624 0.185701,-0.0394 0.264583,0 0.3175,0.15875 0.47625,0.635 0.79375,0.79375 0.07888,0.0394 0.185701,-0.0394 0.264584,0 1.101132,0.55057 -0.28285,-0.0182 0.264583,0.52917 0.352777,0.35278 0.253884,-0.56127 0.529167,0.26458 0.05578,0.16734 -0.05578,0.36183 0,0.52917 0.03944,0.11832 0.176389,0.17639 0.264583,0.26458 0.08819,0.0882 0.153024,0.20881 0.264583,0.26459 0.07888,0.0394 0.202221,-0.0624 0.264584,0 0.124724,0.12472 -0.07888,0.3714 0,0.52916 0.550566,1.10114 -0.01826,-0.28285 0.529166,0.26459 0.124725,0.12472 -0.124724,0.40444 0,0.52916 0.06236,0.0624 0.17639,0 0.264584,0 0.08819,0.0882 0.195397,0.16081 0.264583,0.26459 0.109392,0.16408 0.155191,0.36508 0.264583,0.52916 0.06919,0.10378 0.208804,0.15303 0.264584,0.26459 0.03944,0.0789 -0.03944,0.1857 0,0.26458 0.550566,1.10113 -0.01826,-0.28285 0.529166,0.26458 0.124725,0.12473 -0.124724,0.40444 0,0.52917 0.06236,0.0624 0.185701,-0.0394 0.264584,0 0.585007,0.2925 0.0821,0.16421 0.264583,0.52917 0.111559,0.22311 0.417608,0.30605 0.529167,0.52916 0.03944,0.0789 -0.03944,0.1857 0,0.26459 0.602228,0.60222 0.06993,-0.0548 0.264583,0.52916 0.638828,1.91649 -0.07628,-0.41714 0.529167,0.79375 0.03944,0.0789 -0.06236,0.20222 0,0.26459 0.06236,0.0624 0.202221,-0.0624 0.264583,0 0.06236,0.0624 -0.03944,0.1857 0,0.26458 0.111559,0.22311 0.417608,0.30605 0.529167,0.52917 0.03944,0.0789 -0.03944,0.1857 0,0.26458 0.550566,1.10113 -0.01826,-0.28285 0.529166,0.26458 0.547434,0.54744 -0.836549,-0.0214 0.264584,0.52917 0.157765,0.0789 0.404442,-0.12473 0.529166,0 0.06236,0.0624 -0.03944,0.1857 0,0.26458 0.550566,1.10114 -0.01826,-0.28285 0.529167,0.26459 0.06236,0.0624 -0.06236,0.20222 0,0.26458 0.04106,0.0411 0.690795,-0.0343 0.79375,0 0.187089,0.0624 0.342077,0.20222 0.529167,0.26458 0.08367,0.0279 0.1857,-0.0394 0.264583,0 0.111559,0.0558 0.153024,0.20881 0.264583,0.26459 0.07888,0.0394 0.185701,-0.0394 0.264584,0 0.111558,0.0558 0.153024,0.2088 0.264583,0.26458 0.169074,0.0845 0.84537,-0.071 1.058333,0 0.18709,0.0624 0.342077,0.20222 0.529167,0.26458 0.249266,0.0831 1.415957,-0.0858 1.5875,0 0.111559,0.0558 0.153024,0.20881 0.264583,0.26459 0.06957,0.0348 0.919978,0 1.058334,0 0.184028,0 1.227235,0.0478 1.322916,0 0.111559,-0.0558 0.153025,-0.20881 0.264583,-0.26459 0.211667,-0.10583 0.582084,0.10584 0.79375,0 0.111559,-0.0558 0.153025,-0.2088 0.264584,-0.26458 0.07888,-0.0394 0.180914,0.0279 0.264583,0 1.642298,-0.54743 -0.879348,0.0214 1.322917,-0.52917 0.08556,-0.0214 0.1857,0.0394 0.264583,0 0.234511,-0.11725 0.552895,-0.63318 0.79375,-0.79375 0.164087,-0.10939 0.36508,-0.15519 0.529167,-0.26458 0.207555,-0.13837 0.306051,-0.41761 0.529166,-0.52917 0.07888,-0.0394 0.185701,0.0394 0.264584,0 0.223115,-0.11156 0.306051,-0.4176 0.529166,-0.52916 0.07888,-0.0394 0.185701,0.0394 0.264584,0 0.223115,-0.11156 0.321611,-0.3908 0.529166,-0.52917 0.164087,-0.10939 0.389718,-0.12514 0.529167,-0.26458 0.06236,-0.0624 -0.06236,-0.20222 0,-0.26459 0.64262,-0.64262 0.38852,0.0787 0.79375,-0.52916 0.109392,-0.16409 0.155191,-0.36508 0.264583,-0.52917 0.06919,-0.10378 0.17639,-0.17639 0.264584,-0.26458 0.264583,-0.26459 0.529166,-0.52917 0.79375,-0.79375 0.206663,-0.20667 0.565441,-0.64155 0.79375,-0.79375 0.164086,-0.1094 0.36508,-0.1552 0.529166,-0.26459 0.207555,-0.13837 0.306052,-0.4176 0.529167,-0.52916 0.07888,-0.0394 0.1857,0.0394 0.264583,0 1.101133,-0.55057 -0.28285,0.0183 0.264584,-0.52917 0.06236,-0.0624 0.202221,0.0624 0.264583,0 0.139449,-0.13945 0.155191,-0.36508 0.264583,-0.52917 0.138372,-0.20755 0.390795,-0.32161 0.529167,-0.52916 0.109392,-0.16409 0.155191,-0.36508 0.264583,-0.52917 0.152207,-0.22831 0.587087,-0.58709 0.79375,-0.79375 0.155612,-0.15561 0.93581,-0.99707 1.058334,-1.05833 0.07888,-0.0394 0.1857,0.0394 0.264583,0 0.111559,-0.0558 0.17639,-0.17639 0.264583,-0.26459 0.08819,-0.0882 0.208804,-0.15302 0.264584,-0.26458 0.03944,-0.0789 -0.06236,-0.20222 0,-0.26458 0.06236,-0.0624 0.1857,0.0394 0.264583,0 0.111559,-0.0558 0.153024,-0.20881 0.264583,-0.26459 0.07888,-0.0394 0.202221,0.0624 0.264584,0 0.06236,-0.0624 -0.06236,-0.20222 0,-0.26458 0.06236,-0.0624 0.1857,0.0394 0.264583,0 0.585007,-0.29251 0.0821,-0.16421 0.264583,-0.52917 0.292505,-0.585 0.164211,-0.0821 0.529167,-0.26458 1.101132,-0.55057 -0.28285,0.0183 0.264583,-0.52917 0.06236,-0.0624 0.185701,0.0394 0.264584,0 0.585007,-0.2925 0.0821,-0.16421 0.264583,-0.52916 0.550566,-1.10114 -0.01826,0.28285 0.529167,-0.26459 0.06236,-0.0624 -0.06236,-0.20222 0,-0.26458 0.06236,-0.0624 0.191201,0.0489 0.264583,0 0.207555,-0.13837 0.321612,-0.3908 0.529167,-0.52917 0.07338,-0.0489 0.1857,0.0394 0.264583,0 0.111559,-0.0558 0.153024,-0.2088 0.264583,-0.26458 0.07888,-0.0394 0.185701,0.0394 0.264584,0 0.223115,-0.11156 0.306051,-0.41761 0.529166,-0.52917 0.166918,-0.0834 1.155999,0.0835 1.322917,0 0.111559,-0.0558 0.153024,-0.2088 0.264583,-0.26458 0.07888,-0.0394 0.17639,0 0.264584,0 0.08819,0 0.176389,0 0.264583,0 0.06417,0 0.785241,0.009 0.79375,0 0.06236,-0.0624 -0.06236,-0.20222 0,-0.26458 0.06236,-0.0624 0.17639,0 0.264583,0 0.08819,0 0.17639,0 0.264584,0 0.79375,0 1.5875,0 2.38125,0 0.224009,0 0.91609,-0.0474 1.058333,0 0.118324,0.0394 0.153024,0.2088 0.264583,0.26458 0.211667,0.10583 0.582083,-0.10583 0.79375,0 0.07888,0.0394 -0.07888,0.22514 0,0.26458 0.211667,0.10584 0.582083,-0.10583 0.79375,0 0.111559,0.0558 0.153025,0.20881 0.264583,0.26459 0.07888,0.0394 0.202221,-0.0624 0.264584,0 0.06236,0.0624 -0.06236,0.20222 0,0.26458 0.06236,0.0624 0.1857,-0.0394 0.264583,0 0.111559,0.0558 0.153025,0.2088 0.264583,0.26458 0.07888,0.0394 0.202221,-0.0624 0.264584,0 0.06236,0.0624 -0.06236,0.20222 0,0.26459 0.06236,0.0624 0.1857,-0.0394 0.264583,0 0.111559,0.0558 0.153025,0.2088 0.264583,0.26458 0.07888,0.0394 0.185701,-0.0394 0.264584,0 0.111559,0.0558 0.17639,0.17639 0.264583,0.26458 0.08819,0.0882 0.208804,0.15303 0.264583,0.26459 0.03944,0.0789 -0.07338,0.21566 0,0.26458 0.232056,0.1547 0.561695,0.10988 0.79375,0.26458 0.07338,0.0489 0,0.17639 0,0.26459 0.08819,0.0882 0.153025,0.2088 0.264584,0.26458 0.364955,0.18248 0.236662,-0.32042 0.529166,0.26458 0.182478,0.36496 -0.320423,0.23666 0.264585,0.52917 0.0789,0.0394 0.20222,-0.0624 0.26458,0 0.35278,0.35278 -0.561264,0.25388 0.26459,0.52917 0.16733,0.0558 0.3714,-0.0789 0.52916,0 0.0789,0.0394 -0.0394,0.1857 0,0.26458 0.0558,0.11156 0.17639,0.17639 0.26459,0.26458 0.0882,0.0882 0.15302,0.20881 0.26458,0.26459 0.0789,0.0394 0.20222,-0.0624 0.26458,0 0.12473,0.12472 -0.12472,0.40444 0,0.52916 0.35278,0.35278 0.25389,-0.56126 0.52917,0.26459 0.0558,0.16733 -0.0789,0.3714 0,0.52916 0.0394,0.0789 0.1857,-0.0394 0.26458,0 0.11156,0.0558 0.1954,0.16081 0.26459,0.26459 0.10939,0.16408 0.15519,0.36508 0.26458,0.52916 0.13837,0.20756 0.41761,0.30605 0.52917,0.52917 0.0394,0.0789 -0.0394,0.1857 0,0.26458 0.11155,0.22312 0.39079,0.32161 0.52916,0.52917 0.58292,0.13324 0.13986,0.5443 0.26459,0.79375 0.15875,0.3175 0.635,0.47625 0.79375,0.79375 0.0394,0.0789 -0.0395,0.1857 0,0.26458 0.0473,0.0946 0.9483,0.98498 1.05833,1.05834 0.16409,0.10939 0.36508,0.15519 0.52917,0.26458 0.2283,0.15221 0.58708,0.58709 0.79375,0.79375 0.44097,0.44097 0.88194,0.88194 1.32291,1.32292 0.13929,0.13929 0.65244,0.72309 0.79375,0.79375 0.24945,0.12472 0.5617,0.10987 0.79375,0.26458 0.0734,0.0489 -0.0624,0.20222 0,0.26458 0.0624,0.0624 0.1857,-0.0394 0.26459,0 1.10113,0.55057 -0.28285,-0.0183 0.26458,0.52917 0.12472,0.12472 0.40444,-0.12473 0.52917,0 0.0624,0.0624 -0.0624,0.20222 0,0.26458 0.0624,0.0624 0.1857,-0.0394 0.26458,0 0.11156,0.0558 0.15302,0.20881 0.26458,0.26459 0.0789,0.0394 0.1857,-0.0394 0.26459,0 0.11155,0.0558 0.15302,0.2088 0.26458,0.26458 0.0805,0.0403 0.67459,0 0.79375,0 0.52917,0 1.05833,0 1.5875,0 0.0629,0 0.99903,0.0297 1.05833,0 0.11156,-0.0558 0.16081,-0.1954 0.26459,-0.26458 0.32817,-0.21879 0.73015,-0.31039 1.05833,-0.52917 0.20755,-0.13837 0.30605,-0.41761 0.52917,-0.52917 0.15776,-0.0789 0.3714,0.0789 0.52916,0 0.3175,-0.15875 0.47625,-0.635 0.79375,-0.79375 0.15777,-0.0789 0.40444,0.12473 0.52917,0 0.0624,-0.0624 -0.0624,-0.20222 0,-0.26458 0.0624,-0.0624 0.1857,0.0394 0.26458,0 0.11156,-0.0558 0.16081,-0.1954 0.26459,-0.26458 0.16408,-0.1094 0.36508,-0.1552 0.52916,-0.26459 0.20756,-0.13837 0.30605,-0.4176 0.52917,-0.52916 0.15776,-0.0789 0.3714,0.0789 0.52917,0 0.22311,-0.11156 0.30605,-0.41761 0.52916,-0.52917 0.0789,-0.0394 0.20222,0.0624 0.26459,0 0.0624,-0.0624 -0.0395,-0.1857 0,-0.26458 0.15166,-0.30333 0.55205,-0.36804 0.79375,-0.52917 0.10377,-0.0692 0.17638,-0.17639 0.26458,-0.26458 0.26458,-0.26459 0.52917,-0.52917 0.79375,-0.79375 0.13929,-0.1393 0.72309,-0.65245 0.79375,-0.79375 0.0394,-0.0789 -0.0624,-0.20222 0,-0.26459 0.0624,-0.0624 0.20222,0.0624 0.26458,0 0.0624,-0.0624 -0.0394,-0.1857 0,-0.26458 0.11156,-0.22312 0.41761,-0.30605 0.52917,-0.52917 0.0394,-0.0789 -0.0624,-0.20222 0,-0.26458 0.0624,-0.0624 0.22514,0.0789 0.26458,0 0.0789,-0.15777 -0.0558,-0.36183 0,-0.52917 0.0394,-0.11832 0.22514,-0.14626 0.26459,-0.26458 5.2e-4,-0.001 -2.6e-4,-0.7935 0,-0.79375 0.0624,-0.0624 0.20222,0.0624 0.26458,0 0.12472,-0.12473 -0.0789,-0.3714 0,-0.52917 0.0558,-0.11156 0.2088,-0.15302 0.26458,-0.26458 0.0394,-0.0789 -0.0394,-0.1857 0,-0.26458 0.0558,-0.11156 0.20881,-0.15303 0.26459,-0.26459 0.0831,-0.16629 -0.0831,-0.89203 0,-1.05833 0.0558,-0.11156 0.2088,-0.15302 0.26458,-0.26458 0.0394,-0.0789 -0.0394,-0.1857 0,-0.26459 0.0558,-0.11156 0.2088,-0.15302 0.26458,-0.26458 0.0525,-0.10491 -0.0541,-0.73966 0,-0.79375 0.0624,-0.0624 0.20222,0.0624 0.26459,0 0.13944,-0.13945 0.15519,-0.36508 0.26458,-0.52917 0.13837,-0.20755 0.35278,-0.35277 0.52917,-0.52916 0.26458,-0.26459 0.52916,-0.52917 0.79375,-0.79375 0.13929,-0.1393 0.65244,-0.7231 0.79375,-0.79375 0.0789,-0.0395 0.1857,0.0394 0.26458,0 0.11156,-0.0558 0.15302,-0.20881 0.26458,-0.26459 0.15777,-0.0789 0.3714,0.0789 0.52917,0 0.11156,-0.0558 0.15302,-0.2088 0.26458,-0.26458 0.0789,-0.0394 0.18092,0.0279 0.26458,0 0.18709,-0.0624 0.34208,-0.20222 0.52917,-0.26458 0.18199,-0.0607 0.63764,0.078 0.79375,0 0.11156,-0.0558 0.15303,-0.20881 0.26458,-0.26459 0.0696,-0.0348 0.91998,0 1.05834,0 0.79375,0 1.5875,0 2.38125,0 0.70555,0 1.41111,0 2.11666,0 0.11916,0 0.71323,-0.0403 0.79375,0 0.11156,0.0558 0.16081,0.1954 0.26459,0.26459 0.16408,0.10939 0.36508,0.15519 0.52916,0.26458 0.10378,0.0692 0.15303,0.2088 0.26459,0.26458 0.65165,0.32583 -0.23885,-0.76801 0.79375,0.26459 0.0624,0.0624 -0.0624,0.20222 0,0.26458 0.13945,0.13945 0.34208,0.20222 0.52916,0.26458 0.0837,0.0279 0.20223,-0.0624 0.26459,0 0.0624,0.0624 -0.0394,0.1857 0,0.26459 0.0558,0.11156 0.17639,0.17639 0.26458,0.26458 0.17639,0.17639 0.3908,0.32161 0.52917,0.52917 0.0489,0.0734 -0.0394,0.1857 0,0.26458 0.11156,0.22311 0.45028,0.29251 0.52916,0.52917 0.0558,0.16733 -0.0789,0.3714 0,0.52916 0.0394,0.0789 0.20223,-0.0624 0.26459,0 0.0624,0.0624 -0.0394,0.1857 0,0.26459 0.0558,0.11156 0.2088,0.15302 0.26458,0.26458 0.0394,0.0789 -0.0279,0.18091 0,0.26458 0.0624,0.18709 0.20222,0.34208 0.26458,0.52917 0.0279,0.0837 -0.0279,0.18091 0,0.26458 0.18404,0.55212 0.60972,0.77081 0.79375,1.32292 0.0279,0.0837 -0.0279,0.18091 0,0.26458 0.0624,0.18709 0.20223,0.34208 0.26459,0.52917 0.071,0.21296 -0.0845,0.88926 0,1.05833 0.0558,0.11156 0.2088,0.15303 0.26458,0.26459 0.0394,0.0789 -0.0394,0.1857 0,0.26458 0.0558,0.11156 0.20881,0.15302 0.26458,0.26458 0.0866,0.17326 -0.0783,1.08812 0,1.32292 0.0624,0.18709 0.21676,0.33785 0.26459,0.52917 0.0516,0.20642 0,1.27868 0,1.5875 0,0.59893 0.35094,0.78823 0.52916,1.32291 0.0558,0.16734 -0.0789,0.3714 0,0.52917 0.0558,0.11156 0.20881,0.15302 0.26459,0.26458 0.0478,0.0957 0,1.13889 0,1.32292 0,0.44097 0,0.88194 0,1.32292 0,0.17639 -0.0789,0.3714 0,0.52916 0.0394,0.0789 0.17639,0 0.26458,0"
       id="path10"
       inkscape:connector-curvature="0" />
  </g>
</svg>
