<?xml version="1.0" encoding="UTF-8" standalone="no"?>
<svg
   xmlns:dc="http://purl.org/dc/elements/1.1/"
   xmlns:cc="http://creativecommons.org/ns#"
   xmlns:rdf="http://www.w3.org/1999/02/22-rdf-syntax-ns#"
   xmlns:svg="http://www.w3.org/2000/svg"
   xmlns="http://www.w3.org/2000/svg"
   xmlns:sodipodi="http://sodipodi.sourceforge.net/DTD/sodipodi-0.dtd"
   xmlns:inkscape="http://www.inkscape.org/namespaces/inkscape"
   width="400px"
   height="260px"
   viewBox="0 0 400 400"
   preserveAspectRatio="none"
   version="1.1"
   id="svg8"
   inkscape:version="0.92.3 (2405546, 2018-03-11)"
   sodipodi:docname="drawing.svg">
  <defs
     id="defs2">
    <filter
       style="color-interpolation-filters:sRGB"
       inkscape:label="Drop Shadow"
       id="filter4657">
      <feFlood
         flood-opacity="0.498039"
         flood-color="rgb(0,0,0)"
         result="flood"
         id="feFlood4647" />
      <feComposite
         in="flood"
         in2="SourceGraphic"
         operator="in"
         result="composite1"
         id="feComposite4649" />
      <feGaussianBlur
         in="composite1"
         stdDeviation="0.5"
         result="blur"
         id="feGaussianBlur4651" />
      <feOffset
         dx="-1"
         dy="-0.5"
         result="offset"
         id="feOffset4653" />
      <feComposite
         in="SourceGraphic"
         in2="offset"
         operator="over"
         result="composite2"
         id="feComposite4655" />
    </filter>
  </defs>
  <sodipodi:namedview
     id="base"
     pagecolor="#ffffff"
     bordercolor="#666666"
     borderopacity="1.0"
     inkscape:pageopacity="0.0"
     inkscape:pageshadow="2"
     inkscape:zoom="1.01"
     inkscape:cx="321.53921"
     inkscape:cy="-16.216212"
     inkscape:document-units="mm"
     inkscape:current-layer="layer1"
     showgrid="false"
     showguides="false"
     inkscape:window-width="1920"
     inkscape:window-height="1003"
     inkscape:window-x="-9"
     inkscape:window-y="-9"
     inkscape:window-maximized="1"
     units="px"
     fit-margin-top="10"
     fit-margin-right="10"
     fit-margin-left="10"
     fit-margin-bottom="10" />
  <metadata
     id="metadata5">
    <rdf:RDF>
      <cc:Work
         rdf:about="">
        <dc:format>image/svg+xml</dc:format>
        <dc:type
           rdf:resource="http://purl.org/dc/dcmitype/StillImage" />
        <dc:title></dc:title>
      </cc:Work>
    </rdf:RDF>
  </metadata>
  <g
     inkscape:label="Layer 1"
     inkscape:groupmode="layer"
     id="layer1"
     transform="translate(23.381465,-36.804754)">
    <g
       aria-label="Yonatan Silverstein"
       style="font-style:normal;font-weight:normal;font-size:10.58333302px;line-height:1.25;font-family:sans-serif;letter-spacing:0px;word-spacing:0px;fill:#000000;fill-opacity:1;stroke:none;stroke-width:0.26458332;filter:url(#filter4657)"
       id="text3715"
       transform="translate(-1.5717822,0.2619637)">
      <path
         d="m 21.897435,46.479551 -0.06302,0.505964 q -0.931535,0.009 -1.474923,0.357876 -0.755273,0.489175 -2.550655,2.862392 l -4.856673,6.213521 -0.558675,4.485306 q -0.178844,1.435845 -0.07271,1.810123 0.10784,0.360604 0.511365,0.688603 0.418904,0.316028 1.157338,0.408005 l 1.039278,0.129449 -0.06302,0.505964 -10.4064563,-1.296193 0.063021,-0.505964 0.9709046,0.120932 Q 6.4136922,62.867726 6.928076,62.640172 7.3074644,62.493011 7.5704964,62.05362 7.7617969,61.744163 7.935531,60.349342 L 8.3988219,56.62982 5.0261916,48.141467 Q 4.0200573,45.627605 3.5378418,45.150936 3.0573295,44.660592 2.1701765,44.536205 l 0.063021,-0.505965 8.8885635,1.10713 -0.06302,0.505964 -0.396567,-0.0494 q -0.8068082,-0.100493 -1.163957,0.0911 -0.3434741,0.193295 -0.3758363,0.453114 -0.061318,0.49229 0.7856842,2.611386 l 2.5855341,6.557248 4.03327,-5.177358 q 1.49989,-1.896209 1.58335,-2.56627 0.04599,-0.369217 -0.278895,-0.659647 -0.422358,-0.399779 -1.658241,-0.623151 l 0.06302,-0.505964 z"
         style="font-size:28.22222137px;fill:#ececec"
         id="path4663"
         inkscape:connector-curvature="0" />
      <path
         d="m 26.223938,51.926086 q 1.344966,0 2.502518,0.694531 1.157552,0.694531 1.752864,1.973351 0.606337,1.278819 0.606337,2.800173 0,2.193837 -1.113455,3.671094 -1.344965,1.785937 -3.715191,1.785937 -2.326128,0 -3.582899,-1.631597 -1.256771,-1.631597 -1.256771,-3.781337 0,-2.215885 1.27882,-3.858507 1.289843,-1.653645 3.527777,-1.653645 z m 0.0441,0.782725 q -0.56224,0 -0.970139,0.429948 -0.396875,0.418924 -0.529167,1.675695 -0.121267,1.245746 -0.121267,3.472656 0,1.179601 0.15434,2.204861 0.121267,0.782726 0.518142,1.190625 0.396875,0.407899 0.903993,0.407899 0.496094,0 0.826823,-0.275607 0.429948,-0.374827 0.573264,-1.047309 0.220486,-1.047309 0.220486,-4.233334 0,-1.874132 -0.209461,-2.568663 -0.209462,-0.705555 -0.617362,-1.02526 -0.286631,-0.231511 -0.749652,-0.231511 z"
         style="font-size:22.57777786px;fill:#ececec"
         id="path4665"
         inkscape:connector-curvature="0" />
      <path
         d="m 37.391561,52.234766 v 1.333941 q 0.79375,-0.859896 1.521354,-1.245746 0.727604,-0.396875 1.565451,-0.396875 1.003212,0 1.66467,0.562239 0.661459,0.551215 0.881945,1.378038 0.176389,0.628386 0.176389,2.414323 v 4.012848 q 0,1.190625 0.209461,1.488281 0.220487,0.286632 0.903993,0.363802 v 0.396875 h -5.214496 v -0.396875 q 0.584288,-0.07717 0.837847,-0.48507 0.176389,-0.275607 0.176389,-1.367013 v -4.586112 q 0,-1.267795 -0.09922,-1.598524 -0.09922,-0.330729 -0.341753,-0.507118 -0.231511,-0.187413 -0.518143,-0.187413 -0.94809,0 -1.763888,1.355989 v 5.523178 q 0,1.157552 0.209461,1.466232 0.220486,0.308681 0.804775,0.385851 v 0.396875 H 33.1913 v -0.396875 q 0.650434,-0.06615 0.926042,-0.418924 0.187413,-0.242534 0.187413,-1.433159 V 54.4727 q 0,-1.168576 -0.220486,-1.455208 Q 33.874807,52.73086 33.1913,52.642665 v -0.407899 z"
         style="font-size:22.57777786px;fill:#ececec"
         id="path4667"
         inkscape:connector-curvature="0" />
      <path
         d="m 51.965692,61.021138 q -1.885157,1.66467 -3.384462,1.66467 -0.881945,0 -1.466233,-0.573264 -0.584288,-0.584288 -0.584288,-1.455208 0,-1.179601 1.014236,-2.116667 1.014236,-0.94809 4.420747,-2.513542 v -1.036284 q 0,-1.168577 -0.132292,-1.466233 -0.121267,-0.308681 -0.474045,-0.529167 -0.352778,-0.23151 -0.79375,-0.23151 -0.71658,0 -1.179601,0.319705 -0.286632,0.198437 -0.286632,0.463021 0,0.23151 0.308681,0.573263 0.418923,0.474046 0.418923,0.915018 0,0.540191 -0.407899,0.926041 -0.396875,0.374827 -1.047309,0.374827 -0.694531,0 -1.168576,-0.418924 -0.463021,-0.418923 -0.463021,-0.981163 0,-0.79375 0.628385,-1.51033 0.628386,-0.727604 1.752865,-1.113455 1.124479,-0.38585 2.337153,-0.38585 1.466232,0 2.315104,0.628385 0.859896,0.617361 1.113455,1.344965 0.15434,0.463021 0.15434,2.127691 v 4.001823 q 0,0.705556 0.05512,0.892969 0.05512,0.176389 0.165364,0.264583 0.110243,0.0882 0.253559,0.0882 0.286632,0 0.584288,-0.4079 l 0.33073,0.264584 q -0.551216,0.815798 -1.146528,1.190625 -0.584288,0.363802 -1.333941,0.363802 -0.881945,0 -1.378038,-0.407899 -0.496094,-0.418924 -0.606337,-1.256771 z m 0,-0.804775 v -3.450607 q -1.333941,0.782725 -1.984375,1.675694 -0.429948,0.595313 -0.429948,1.20165 0,0.507118 0.363802,0.892968 0.275608,0.297657 0.771701,0.297657 0.551216,0 1.27882,-0.617362 z"
         style="font-size:22.57777786px;fill:#ececec"
         id="path4669"
         inkscape:connector-curvature="0" />
      <path
         d="m 62.185222,48.464454 v 3.770312 h 2.447395 v 1.091406 h -2.447395 v 6.361025 q 0,0.892969 0.07717,1.157552 0.08819,0.253559 0.297656,0.418923 0.209462,0.154341 0.385851,0.154341 0.71658,0 1.355989,-1.091407 l 0.330729,0.242535 q -0.892968,2.116667 -2.899392,2.116667 -0.981163,0 -1.66467,-0.540191 -0.672483,-0.551215 -0.859896,-1.223698 -0.110243,-0.374826 -0.110243,-2.028472 v -5.567275 h -1.344965 v -0.38585 q 1.389062,-0.981163 2.359201,-2.061545 0.981163,-1.080382 1.708768,-2.414323 z"
         style="font-size:22.57777786px;fill:#ececec"
         id="path4671"
         inkscape:connector-curvature="0" />
      <path
         d="m 71.853536,61.021138 q -1.885156,1.66467 -3.384462,1.66467 -0.881944,0 -1.466233,-0.573264 -0.584288,-0.584288 -0.584288,-1.455208 0,-1.179601 1.014236,-2.116667 1.014236,-0.94809 4.420747,-2.513542 v -1.036284 q 0,-1.168577 -0.132292,-1.466233 -0.121267,-0.308681 -0.474045,-0.529167 -0.352778,-0.23151 -0.79375,-0.23151 -0.71658,0 -1.179601,0.319705 -0.286632,0.198437 -0.286632,0.463021 0,0.23151 0.308681,0.573263 0.418924,0.474046 0.418924,0.915018 0,0.540191 -0.4079,0.926041 -0.396875,0.374827 -1.047309,0.374827 -0.694531,0 -1.168576,-0.418924 -0.463021,-0.418923 -0.463021,-0.981163 0,-0.79375 0.628385,-1.51033 0.628386,-0.727604 1.752865,-1.113455 1.124479,-0.38585 2.337153,-0.38585 1.466232,0 2.315104,0.628385 0.859896,0.617361 1.113455,1.344965 0.15434,0.463021 0.15434,2.127691 v 4.001823 q 0,0.705556 0.05512,0.892969 0.05512,0.176389 0.165364,0.264583 0.110243,0.0882 0.253559,0.0882 0.286632,0 0.584288,-0.4079 l 0.33073,0.264584 q -0.551216,0.815798 -1.146528,1.190625 -0.584288,0.363802 -1.333941,0.363802 -0.881945,0 -1.378038,-0.407899 -0.496094,-0.418924 -0.606337,-1.256771 z m 0,-0.804775 v -3.450607 q -1.333941,0.782725 -1.984375,1.675694 -0.429948,0.595313 -0.429948,1.20165 0,0.507118 0.363802,0.892968 0.275608,0.297657 0.771701,0.297657 0.551216,0 1.27882,-0.617362 z"
         style="font-size:22.57777786px;fill:#ececec"
         id="path4673"
         inkscape:connector-curvature="0" />
      <path
         d="m 82.194341,52.234766 v 1.333941 q 0.79375,-0.859896 1.521354,-1.245746 0.727604,-0.396875 1.565451,-0.396875 1.003212,0 1.66467,0.562239 0.661459,0.551215 0.881945,1.378038 0.176389,0.628386 0.176389,2.414323 v 4.012848 q 0,1.190625 0.209462,1.488281 0.220486,0.286632 0.903993,0.363802 v 0.396875 h -5.214497 v -0.396875 q 0.584288,-0.07717 0.837847,-0.48507 0.176389,-0.275607 0.176389,-1.367013 v -4.586112 q 0,-1.267795 -0.09922,-1.598524 -0.09922,-0.330729 -0.341753,-0.507118 -0.23151,-0.187413 -0.518142,-0.187413 -0.948091,0 -1.763889,1.355989 v 5.523178 q 0,1.157552 0.209462,1.466232 0.220486,0.308681 0.804774,0.385851 v 0.396875 H 77.99408 v -0.396875 q 0.650434,-0.06615 0.926042,-0.418924 0.187413,-0.242534 0.187413,-1.433159 V 54.4727 q 0,-1.168576 -0.220486,-1.455208 -0.209462,-0.286632 -0.892969,-0.374827 v -0.407899 z"
         style="font-size:22.57777786px;fill:#ececec"
         id="path4675"
         inkscape:connector-curvature="0" />
      <path
         d="m 107.99105,41.937115 0.9203,6.162234 -0.56067,0.06983 q -0.68612,-2.275306 -2.42047,-3.489628 -1.72239,-1.2297 -3.52745,-1.004868 -1.39482,0.173734 -2.12162,1.02804 -0.714833,0.838928 -0.5939,1.809832 0.07665,0.615362 0.42343,1.058208 0.47662,0.593317 1.43015,1.113344 0.69892,0.371212 3.1667,1.230331 3.45386,1.194562 4.76601,2.47536 1.29846,1.282501 1.5267,3.114913 0.28956,2.324701 -1.31968,4.233226 -1.59726,1.893148 -4.3869,2.240616 -0.87518,0.109009 -1.67678,0.02832 -0.8016,-0.08068 -2.03895,-0.426493 -0.69045,-0.191737 -1.11436,-0.138935 -0.35555,0.04429 -0.718048,0.367174 -0.362501,0.322889 -0.538812,0.914212 l -0.505964,0.06302 -0.872077,-7.001453 0.505964,-0.06302 q 0.969595,2.878794 2.873107,4.224801 1.91548,1.33063 3.89832,1.083655 1.53157,-0.190766 2.3302,-1.13734 0.8123,-0.948277 0.67434,-2.055929 -0.0818,-0.656386 -0.51395,-1.227463 -0.41851,-0.57278 -1.19773,-1.031198 -0.78092,-0.472093 -2.69669,-1.136117 -2.68482,-0.929293 -3.901486,-1.666509 -1.216662,-0.737217 -1.952908,-1.742575 -0.722571,-1.007061 -0.884382,-2.306159 -0.275931,-2.215304 1.157187,-3.976911 1.433117,-1.761607 3.908239,-2.069899 0.90253,-0.112417 1.77762,7.76e-4 0.66315,0.08404 1.63556,0.421188 0.98439,0.321769 1.3536,0.27578 0.35555,-0.04429 0.53341,-0.28863 0.17787,-0.244344 0.25174,-1.100644 z"
         style="font-size:28.22222137px;fill:#ececec"
         id="path4677"
         inkscape:connector-curvature="0" />
      <path
         d="m 116.67836,47.240756 q 0.71658,0 1.21267,0.507118 0.4961,0.496094 0.4961,1.201649 0,0.705556 -0.50712,1.201649 -0.49609,0.496094 -1.20165,0.496094 -0.70555,0 -1.20165,-0.496094 -0.49609,-0.496093 -0.49609,-1.201649 0,-0.705555 0.49609,-1.201649 0.4961,-0.507118 1.20165,-0.507118 z m 1.5434,4.99401 v 8.169011 q 0,1.091406 0.25356,1.400086 0.25356,0.297657 0.99219,0.341754 v 0.396875 h -5.56727 v -0.396875 q 0.6835,-0.02205 1.01423,-0.396875 0.22049,-0.253559 0.22049,-1.344965 v -6.019271 q 0,-1.091406 -0.25356,-1.389063 -0.25356,-0.30868 -0.98116,-0.352778 v -0.407899 z"
         style="font-size:22.57777786px;fill:#ececec"
         id="path4679"
         inkscape:connector-curvature="0" />
      <path
         d="m 125.02377,47.593534 v 12.810243 q 0,1.091406 0.25355,1.400086 0.25356,0.297657 0.99219,0.341754 v 0.396875 h -5.56727 v -0.396875 q 0.6835,-0.02205 1.01423,-0.396875 0.22049,-0.253559 0.22049,-1.344965 V 49.732249 q 0,-1.080382 -0.25356,-1.378038 -0.25356,-0.308681 -0.98116,-0.352778 v -0.407899 z"
         style="font-size:22.57777786px;fill:#ececec"
         id="path4681"
         inkscape:connector-curvature="0" />
      <path
         d="m 132.4321,62.851172 -3.47266,-7.992621 q -0.62839,-1.444184 -0.98116,-1.830035 -0.25356,-0.286632 -0.74966,-0.385851 v -0.407899 h 5.47908 v 0.407899 q -0.51814,0 -0.70555,0.187414 -0.26458,0.242534 -0.26458,0.573264 0,0.407899 0.48506,1.532378 l 1.69775,3.869531 1.35599,-3.340364 q 0.58429,-1.43316 0.58429,-2.028473 0,-0.341753 -0.25356,-0.551215 -0.24254,-0.220486 -0.87092,-0.242535 v -0.407899 h 3.37343 v 0.407899 q -0.48507,0.06615 -0.79375,0.363803 -0.30868,0.297656 -0.92604,1.752864 l -3.43958,8.09184 z"
         style="font-size:22.57777786px;fill:#ececec"
         id="path4683"
         inkscape:connector-curvature="0" />
      <path
         d="m 148.32914,57.019315 h -5.65547 q 0.0992,2.050521 1.09141,3.241146 0.76068,0.915017 1.83004,0.915017 0.66145,0 1.20165,-0.363802 0.54019,-0.374826 1.15755,-1.333941 l 0.37482,0.242535 q -0.83784,1.708767 -1.85208,2.425347 -1.01424,0.705555 -2.34818,0.705555 -2.29305,0 -3.47265,-1.763888 -0.94809,-1.422136 -0.94809,-3.527778 0,-2.579688 1.38906,-4.101042 1.40009,-1.532378 3.27422,-1.532378 1.56545,0 2.71198,1.289843 1.15755,1.27882 1.24574,3.803386 z m -2.71198,-0.738629 q 0,-1.774913 -0.19843,-2.436371 -0.18742,-0.661459 -0.59532,-1.003212 -0.23151,-0.198438 -0.61736,-0.198438 -0.57326,0 -0.93706,0.56224 -0.65044,0.981163 -0.65044,2.689931 v 0.38585 z"
         style="font-size:22.57777786px;fill:#ececec"
         id="path4685"
         inkscape:connector-curvature="0" />
      <path
         d="m 154.41457,52.234766 v 2.337153 q 1.02526,-1.598524 1.79696,-2.116667 0.7717,-0.529166 1.48828,-0.529166 0.61736,0 0.98117,0.38585 0.37482,0.374827 0.37482,1.069358 0,0.738628 -0.3638,1.146528 -0.35278,0.407899 -0.8599,0.407899 -0.58428,0 -1.01423,-0.374826 -0.42995,-0.374827 -0.50712,-0.418924 -0.11024,-0.06615 -0.25356,-0.06615 -0.3197,0 -0.60634,0.242535 -0.45199,0.374826 -0.6835,1.069358 -0.35278,1.069357 -0.35278,2.359201 v 2.370226 l 0.011,0.617361 q 0,0.628385 0.0772,0.804774 0.1323,0.297656 0.38585,0.440972 0.26459,0.132292 0.88195,0.165365 v 0.396875 h -5.56727 v -0.396875 q 0.67248,-0.05512 0.90399,-0.363802 0.24253,-0.319705 0.24253,-1.66467 v -5.699566 q 0,-0.881945 -0.0882,-1.124479 -0.11024,-0.308681 -0.31971,-0.451997 -0.20946,-0.143316 -0.73862,-0.198438 v -0.407899 z"
         style="font-size:22.57777786px;fill:#ececec"
         id="path4687"
         inkscape:connector-curvature="0" />
      <path
         d="m 167.19173,51.948134 0.16537,3.516754 h -0.37483 q -0.67248,-1.565452 -1.40008,-2.138716 -0.71658,-0.573263 -1.43316,-0.573263 -0.452,0 -0.77171,0.30868 -0.3197,0.297656 -0.3197,0.694531 0,0.297657 0.22049,0.573264 0.35277,0.451997 1.97335,1.554427 1.62057,1.091407 2.12769,1.863108 0.51814,0.760677 0.51814,1.708767 0,0.859896 -0.42995,1.686719 -0.42995,0.826823 -1.21267,1.267795 -0.78273,0.440972 -1.73082,0.440972 -0.73863,0 -1.97335,-0.46302 -0.33073,-0.121268 -0.452,-0.121268 -0.3638,0 -0.60633,0.551216 h -0.3638 l -0.17639,-3.704167 h 0.37482 q 0.4961,1.455208 1.35599,2.182812 0.87092,0.727605 1.64262,0.727605 0.52917,0 0.8599,-0.319705 0.34175,-0.330729 0.34175,-0.79375 0,-0.529167 -0.33073,-0.915018 -0.33072,-0.38585 -1.47725,-1.168576 -1.68672,-1.168576 -2.18281,-1.785938 -0.72761,-0.903993 -0.72761,-1.995399 0,-1.190625 0.8158,-2.149739 0.82682,-0.970139 2.38125,-0.970139 0.83785,0 1.62057,0.407899 0.29766,0.165365 0.48507,0.165365 0.19844,0 0.31971,-0.07717 0.12126,-0.08819 0.38585,-0.474045 z"
         style="font-size:22.57777786px;fill:#ececec"
         id="path4689"
         inkscape:connector-curvature="0" />
      <path
         d="m 174.07091,48.464454 v 3.770312 h 2.44739 v 1.091406 h -2.44739 v 6.361025 q 0,0.892969 0.0772,1.157552 0.0882,0.253559 0.29765,0.418923 0.20946,0.154341 0.38585,0.154341 0.71658,0 1.35599,-1.091407 l 0.33073,0.242535 q -0.89297,2.116667 -2.89939,2.116667 -0.98116,0 -1.66467,-0.540191 -0.67248,-0.551215 -0.8599,-1.223698 -0.11024,-0.374826 -0.11024,-2.028472 v -5.567275 h -1.34496 v -0.38585 q 1.38906,-0.981163 2.3592,-2.061545 0.98116,-1.080382 1.70876,-2.414323 z"
         style="font-size:22.57777786px;fill:#ececec"
         id="path4691"
         inkscape:connector-curvature="0" />
      <path
         d="m 186.78192,57.019315 h -5.65547 q 0.0992,2.050521 1.09141,3.241146 0.76067,0.915017 1.83003,0.915017 0.66146,0 1.20165,-0.363802 0.54019,-0.374826 1.15755,-1.333941 l 0.37483,0.242535 q -0.83785,1.708767 -1.85209,2.425347 -1.01423,0.705555 -2.34817,0.705555 -2.29306,0 -3.47266,-1.763888 -0.94809,-1.422136 -0.94809,-3.527778 0,-2.579688 1.38906,-4.101042 1.40009,-1.532378 3.27422,-1.532378 1.56545,0 2.71198,1.289843 1.15755,1.27882 1.24575,3.803386 z m -2.71198,-0.738629 q 0,-1.774913 -0.19844,-2.436371 -0.18741,-0.661459 -0.59531,-1.003212 -0.23151,-0.198438 -0.61736,-0.198438 -0.57327,0 -0.93707,0.56224 -0.65043,0.981163 -0.65043,2.689931 v 0.38585 z"
         style="font-size:22.57777786px;fill:#ececec"
         id="path4693"
         inkscape:connector-curvature="0" />
      <path
         d="m 191.07038,47.240756 q 0.71658,0 1.21268,0.507118 0.49609,0.496094 0.49609,1.201649 0,0.705556 -0.50712,1.201649 -0.49609,0.496094 -1.20165,0.496094 -0.70555,0 -1.20165,-0.496094 -0.49609,-0.496093 -0.49609,-1.201649 0,-0.705555 0.49609,-1.201649 0.4961,-0.507118 1.20165,-0.507118 z m 1.5434,4.99401 v 8.169011 q 0,1.091406 0.25356,1.400086 0.25356,0.297657 0.99219,0.341754 v 0.396875 h -5.56727 v -0.396875 q 0.6835,-0.02205 1.01423,-0.396875 0.22049,-0.253559 0.22049,-1.344965 v -6.019271 q 0,-1.091406 -0.25356,-1.389063 -0.25356,-0.30868 -0.98116,-0.352778 v -0.407899 z"
         style="font-size:22.57777786px;fill:#ececec"
         id="path4695"
         inkscape:connector-curvature="0" />
      <path
         d="m 199.59217,52.234766 v 1.333941 q 0.79375,-0.859896 1.52135,-1.245746 0.72761,-0.396875 1.56545,-0.396875 1.00322,0 1.66467,0.562239 0.66146,0.551215 0.88195,1.378038 0.17639,0.628386 0.17639,2.414323 v 4.012848 q 0,1.190625 0.20946,1.488281 0.22048,0.286632 0.90399,0.363802 v 0.396875 h -5.21449 v -0.396875 q 0.58428,-0.07717 0.83784,-0.48507 0.17639,-0.275607 0.17639,-1.367013 v -4.586112 q 0,-1.267795 -0.0992,-1.598524 -0.0992,-0.330729 -0.34175,-0.507118 -0.23151,-0.187413 -0.51814,-0.187413 -0.94809,0 -1.76389,1.355989 v 5.523178 q 0,1.157552 0.20946,1.466232 0.22049,0.308681 0.80477,0.385851 v 0.396875 h -5.21449 v -0.396875 q 0.65043,-0.06615 0.92604,-0.418924 0.18741,-0.242534 0.18741,-1.433159 V 54.4727 q 0,-1.168576 -0.22048,-1.455208 -0.20947,-0.286632 -0.89297,-0.374827 v -0.407899 z"
         style="font-size:22.57777786px;fill:#ececec"
         id="path4697"
         inkscape:connector-curvature="0" />
    </g>
    <text
       xml:space="preserve"
       style="font-style:normal;font-weight:normal;font-size:10.58333302px;line-height:1.25;font-family:sans-serif;letter-spacing:0.52916664px;word-spacing:0px;fill:#000000;fill-opacity:1;stroke:none;stroke-width:0.26458332"
       x="30.059128"
       y="87.544586"
       id="text4661"><tspan
         sodipodi:role="line"
         id="tspan4659"
         x="30.059128"
         y="97.200081"
         style="stroke-width:0.26458332"></tspan></text>
  </g>
</svg>
