<?xml version="1.0" encoding="UTF-8" standalone="no"?>
<!-- Created with Inkscape (http://www.inkscape.org/) -->

<svg
   xmlns:dc="http://purl.org/dc/elements/1.1/"
   xmlns:cc="http://creativecommons.org/ns#"
   xmlns:rdf="http://www.w3.org/1999/02/22-rdf-syntax-ns#"
   xmlns:svg="http://www.w3.org/2000/svg"
   xmlns="http://www.w3.org/2000/svg"
   xmlns:sodipodi="http://sodipodi.sourceforge.net/DTD/sodipodi-0.dtd"
   xmlns:inkscape="http://www.inkscape.org/namespaces/inkscape"
   width="2103.6523"
   height="298.30157"
   viewBox="0 0 556.59136 78.925628"
   version="1.1"
   id="svg4791"
   inkscape:version="0.92.3 (2405546, 2018-03-11)"
   sodipodi:docname="title1WhiteOnWhite2.svg">
  <defs
     id="defs4785">
    <filter
       style="color-interpolation-filters:sRGB;"
       inkscape:label="Drop Shadow"
       id="filter2653">
      <feFlood
         flood-opacity="0.498039"
         flood-color="rgb(0,0,0)"
         result="flood"
         id="feFlood2643" />
      <feComposite
         in="flood"
         in2="SourceGraphic"
         operator="in"
         result="composite1"
         id="feComposite2645" />
      <feGaussianBlur
         in="composite1"
         stdDeviation="0.9"
         result="blur"
         id="feGaussianBlur2647" />
      <feOffset
         dx="4.57967e-015"
         dy="0"
         result="offset"
         id="feOffset2649" />
      <feComposite
         in="SourceGraphic"
         in2="offset"
         operator="over"
         result="fbSourceGraphic"
         id="feComposite2651" />
      <feColorMatrix
         result="fbSourceGraphicAlpha"
         in="fbSourceGraphic"
         values="0 0 0 -1 0 0 0 0 -1 0 0 0 0 -1 0 0 0 0 1 0"
         id="feColorMatrix2655" />
      <feFlood
         id="feFlood2657"
         flood-opacity="0.498039"
         flood-color="rgb(0,0,0)"
         result="flood"
         in="fbSourceGraphic" />
      <feComposite
         in2="fbSourceGraphic"
         id="feComposite2659"
         in="flood"
         operator="in"
         result="composite1" />
      <feGaussianBlur
         id="feGaussianBlur2661"
         in="composite1"
         stdDeviation="0.9"
         result="blur" />
      <feOffset
         id="feOffset2663"
         dx="4.57967e-015"
         dy="0"
         result="offset" />
      <feComposite
         in2="offset"
         id="feComposite2665"
         in="fbSourceGraphic"
         operator="over"
         result="composite2" />
    </filter>
  </defs>
  <sodipodi:namedview
     id="base"
     pagecolor="#ffffff"
     bordercolor="#666666"
     borderopacity="1.0"
     inkscape:pageopacity="0"
     inkscape:pageshadow="2"
     inkscape:zoom="0.77781746"
     inkscape:cx="1403.3379"
     inkscape:cy="48.075125"
     inkscape:document-units="px"
     inkscape:current-layer="layer1"
     showgrid="false"
     units="px"
     inkscape:snap-bbox="true"
     inkscape:bbox-paths="true"
     inkscape:measure-start="0,0"
     inkscape:measure-end="0,0"
     fit-margin-top="0"
     fit-margin-left="0"
     fit-margin-right="0"
     fit-margin-bottom="0"
     inkscape:window-width="1920"
     inkscape:window-height="1003"
     inkscape:window-x="-9"
     inkscape:window-y="-9"
     inkscape:window-maximized="1" />
  <metadata
     id="metadata4788">
    <rdf:RDF>
      <cc:Work
         rdf:about="">
        <dc:format>image/svg+xml</dc:format>
        <dc:type
           rdf:resource="http://purl.org/dc/dcmitype/StillImage" />
        <dc:title></dc:title>
      </cc:Work>
    </rdf:RDF>
  </metadata>
  <g
     inkscape:label="Layer 1"
     inkscape:groupmode="layer"
     id="layer1"
     transform="translate(-2.1229147,-234.78561)">
    <text
       xml:space="preserve"
       style="font-style:normal;font-weight:normal;font-size:25.40000153px;line-height:1.25;font-family:sans-serif;letter-spacing:0px;word-spacing:0px;fill:#000000;fill-opacity:1;stroke:none;stroke-width:0.26458335"
       x="15.875"
       y="269.02975"
       id="text5338"><tspan
         sodipodi:role="line"
         id="tspan5336"
         x="15.875"
         y="292.20294"
         style="stroke-width:0.26458335" /></text>
    <g
       aria-label="Yonatan Silverstein"
       transform="scale(0.97732031,1.023206)"
       style="font-style:normal;font-weight:normal;font-size:50.56020355px;line-height:1.25;font-family:sans-serif;letter-spacing:0px;word-spacing:0px;fill:#f3f3f3;fill-opacity:1;stroke:none;stroke-width:0.52666873;filter:url(#filter2653)"
       id="text5350">
      <path
         d="m 19.083185,263.43088 h -0.790004 l -7.60378,0.14812 v -1.7775 l 2.172509,-0.12344 q 1.135629,-0.0494 1.505943,-0.56782 0.370314,-0.54312 0.469065,-2.51813 0.123438,-1.9997 0.123438,-7.13472 -0.790004,-1.58 -1.728132,-3.23407 -0.938129,-1.67876 -4.0487667,-6.5669 -3.1106376,-4.88815 -3.7772028,-5.75222 -0.6665651,-0.86406 -1.2096923,-1.23438 -0.5184396,-0.37031 -2.0243832,-0.51844 v -1.75281 l 5.1597083,0.14812 8.8875357,-0.14812 v 1.75281 l -1.357818,0.0988 q -1.012191,0.0741 -1.407193,0.32093 -0.370314,0.24688 -0.370314,0.86407 0,0.83938 0.592502,1.82688 l 6.1719,10.66505 5.702836,-10.24536 q 0.61719,-1.23438 0.61719,-1.99969 0,-0.56782 -0.395002,-0.91345 -0.370314,-0.37031 -1.604694,-0.51843 l -1.283755,-0.0988 v -1.75281 l 6.443463,0.14812 4.542519,-0.14812 v 1.75281 l -1.185005,0.0988 q -0.839379,0.0741 -1.728132,1.13562 -1.95032,2.86377 -5.381897,8.44316 -3.431576,5.55471 -4.147516,7.13472 v 4.27095 l 0.04938,3.92533 q 0.04937,1.28376 0.518439,1.87626 0.493752,0.5925 1.604694,0.64188 l 2.46876,0.12344 v 1.7775 z"
         style="font-style:normal;font-variant:normal;font-weight:bold;font-stretch:normal;font-family:'Urdu Typesetting';-inkscape-font-specification:'Urdu Typesetting Bold';word-spacing:1.85208344px;fill:#f3f3f3;fill-opacity:1;stroke-width:0.52666873"
         id="path2667" />
      <path
         d="m 48.165176,242.56986 q 4.838769,0 7.825969,2.86376 3.011887,2.83907 3.011887,7.57909 0,3.06126 -1.604694,5.67815 -1.604694,2.5922 -4.443768,4.04876 -2.814386,1.45657 -6.344713,1.45657 -3.209388,0 -5.702835,-1.33313 -2.493448,-1.35782 -3.851266,-3.75251 -1.357818,-2.3947 -1.357818,-5.33252 0,-4.96221 3.480952,-8.07285 3.480951,-3.13532 8.986286,-3.13532 z m -5.579398,9.80097 q 0,4.1969 1.505944,6.78909 1.505944,2.5922 3.950016,2.5922 1.876257,0 2.962512,-2.07376 1.110942,-2.07376 1.110942,-5.55471 0,-4.22158 -1.481256,-6.69034 -1.481256,-2.49344 -4.024079,-2.49344 -1.654069,0 -2.839074,2.07375 -1.185005,2.04907 -1.185005,5.35721 z"
         style="font-style:normal;font-variant:normal;font-weight:bold;font-stretch:normal;font-family:'Urdu Typesetting';-inkscape-font-specification:'Urdu Typesetting Bold';word-spacing:1.85208344px;fill:#f3f3f3;fill-opacity:1;stroke-width:0.52666873"
         id="path2669" />
      <path
         d="m 78.28405,249.72926 q 0,-3.92533 -3.777203,-3.92533 -1.333131,0 -3.530327,1.25907 v 7.70253 q 0,0.37031 0.04938,2.83907 0.04938,2.44408 0.222189,3.16002 0.1975,0.71594 0.765315,0.88875 0.567815,0.14813 1.604694,0.14813 v 1.7775 l -6.3694,-0.14812 -5.060958,0.14812 v -1.7775 l 0.864066,-0.0494 q 1.036879,-0.0494 1.283755,-0.5925 0.246876,-0.56782 0.296251,-3.75252 0.04938,-3.20938 0.04938,-3.85126 v -2.86376 q 0,-1.43188 -0.123438,-2.29595 -0.123438,-0.88875 -0.370314,-1.40719 -0.246876,-0.54313 -0.666565,-0.81469 -0.395001,-0.29626 -1.604694,-0.74063 l 0.148126,-1.35782 q 1.481256,-0.17281 3.90064,-0.74063 2.419385,-0.5925 3.752516,-0.91344 l 1.23438,0.37031 v 2.24658 q 2.320634,-1.23438 4.073453,-1.82689 1.777508,-0.5925 3.382202,-0.5925 2.937824,0 4.542518,1.8022 1.629381,1.80219 1.629381,4.88814 v 4.24627 l 0.09875,5.75221 q 0.04937,1.53063 0.320939,1.92563 0.296251,0.37032 1.629381,0.51844 l 0.814691,0.0494 v 1.7775 l -5.999087,-0.14812 -5.801586,0.14812 v -1.7775 q 1.65407,-0.0987 1.925633,-0.29626 0.296251,-0.1975 0.419689,-0.74062 0.148126,-0.56782 0.197501,-1.45657 l 0.09875,-4.54252 z"
         style="font-style:normal;font-variant:normal;font-weight:bold;font-stretch:normal;font-family:'Urdu Typesetting';-inkscape-font-specification:'Urdu Typesetting Bold';word-spacing:1.85208344px;fill:#f3f3f3;fill-opacity:1;stroke-width:0.52666873"
         id="path2671" />
      <path
         d="m 106.42791,263.89994 q -1.62938,0 -2.69095,-0.61719 -1.06156,-0.64188 -1.72813,-2.27126 -3.801888,3.13533 -6.9619,3.13533 -2.444073,0 -3.900641,-1.53063 -1.456568,-1.53063 -1.456568,-4.07346 0,-1.95032 0.962816,-3.33282 0.962816,-1.4072 2.937824,-2.22189 1.999696,-0.81469 6.813779,-1.70344 l 0.93813,-0.1975 v -1.62938 q 0,-2.17251 -1.06157,-3.06127 -1.036878,-0.88875 -3.258762,-0.88875 -1.678757,0 -4.419081,0.91344 h -0.61719 l -0.345626,-1.75282 q 2.197196,-0.83938 4.814082,-1.45657 2.616885,-0.64187 3.950017,-0.64187 7.23347,0 7.23347,6.61627 v 8.54191 q 0,3.5797 1.70344,3.5797 1.06157,0 2.12313,-0.64187 l 0.61719,1.53063 q -1.08625,0.71594 -2.69095,1.20969 -1.58,0.49375 -2.96251,0.49375 z m -4.81408,-4.64127 q -0.27156,-1.80219 -0.27156,-6.44346 -0.24688,0.12344 -2.765014,0.76532 -1.308442,0.49375 -1.900945,1.50594 -0.592502,0.9875 -0.592502,2.69095 0,1.43188 0.567815,2.17251 0.592502,0.71594 1.481256,0.71594 1.678756,0 3.48095,-1.4072 z"
         style="font-style:normal;font-variant:normal;font-weight:bold;font-stretch:normal;font-family:'Urdu Typesetting';-inkscape-font-specification:'Urdu Typesetting Bold';word-spacing:1.85208344px;fill:#f3f3f3;fill-opacity:1;stroke-width:0.52666873"
         id="path2673" />
      <path
         d="m 112.822,244.14986 q 1.92563,-1.28375 5.40658,-4.02408 l 1.70345,-1.30844 1.62938,0.27156 -0.12344,3.95002 h 7.20878 l 0.17281,0.61719 -0.79,1.90095 -6.59159,-0.22219 -0.0988,6.54221 v 5.75221 q 0,1.58001 0.79,2.46876 0.8147,0.86407 2.1972,0.86407 1.20969,0 4.32033,-1.33313 l 0.81469,1.85157 q -5.06096,2.66626 -8.66535,2.66626 -2.44407,0 -4.02407,-1.58001 -1.55532,-1.60469 -1.55532,-3.9747 v -13.20787 h -2.22189 z"
         style="font-style:normal;font-variant:normal;font-weight:bold;font-stretch:normal;font-family:'Urdu Typesetting';-inkscape-font-specification:'Urdu Typesetting Bold';word-spacing:1.85208344px;fill:#f3f3f3;fill-opacity:1;stroke-width:0.52666873"
         id="path2675" />
      <path
         d="m 148.00183,263.89994 q -1.62938,0 -2.69095,-0.61719 -1.06157,-0.64188 -1.72813,-2.27126 -3.80189,3.13533 -6.96191,3.13533 -2.44407,0 -3.90064,-1.53063 -1.45657,-1.53063 -1.45657,-4.07346 0,-1.95032 0.96282,-3.33282 0.96282,-1.4072 2.93782,-2.22189 1.9997,-0.81469 6.81378,-1.70344 l 0.93813,-0.1975 v -1.62938 q 0,-2.17251 -1.06157,-3.06127 -1.03687,-0.88875 -3.25876,-0.88875 -1.67876,0 -4.41908,0.91344 h -0.61719 l -0.34563,-1.75282 q 2.1972,-0.83938 4.81409,-1.45657 2.61688,-0.64187 3.95001,-0.64187 7.23347,0 7.23347,6.61627 v 8.54191 q 0,3.5797 1.70344,3.5797 1.06157,0 2.12314,-0.64187 l 0.61719,1.53063 q -1.08626,0.71594 -2.69095,1.20969 -1.58001,0.49375 -2.96251,0.49375 z m -4.81409,-4.64127 q -0.27156,-1.80219 -0.27156,-6.44346 -0.24687,0.12344 -2.76501,0.76532 -1.30844,0.49375 -1.90095,1.50594 -0.5925,0.9875 -0.5925,2.69095 0,1.43188 0.56782,2.17251 0.5925,0.71594 1.48125,0.71594 1.67876,0 3.48095,-1.4072 z"
         style="font-style:normal;font-variant:normal;font-weight:bold;font-stretch:normal;font-family:'Urdu Typesetting';-inkscape-font-specification:'Urdu Typesetting Bold';word-spacing:1.85208344px;fill:#f3f3f3;fill-opacity:1;stroke-width:0.52666873"
         id="path2677" />
      <path
         d="m 170.71442,249.72926 q 0,-3.92533 -3.77721,-3.92533 -1.33313,0 -3.53032,1.25907 v 7.70253 q 0,0.37031 0.0494,2.83907 0.0494,2.44408 0.22219,3.16002 0.1975,0.71594 0.76532,0.88875 0.56781,0.14813 1.60469,0.14813 v 1.7775 l -6.3694,-0.14812 -5.06096,0.14812 v -1.7775 l 0.86407,-0.0494 q 1.03688,-0.0494 1.28375,-0.5925 0.24688,-0.56782 0.29625,-3.75252 0.0494,-3.20938 0.0494,-3.85126 v -2.86376 q 0,-1.43188 -0.12344,-2.29595 -0.12344,-0.88875 -0.37031,-1.40719 -0.24688,-0.54313 -0.66657,-0.81469 -0.395,-0.29626 -1.60469,-0.74063 l 0.14812,-1.35782 q 1.48126,-0.17281 3.90064,-0.74063 2.41939,-0.5925 3.75252,-0.91344 l 1.23438,0.37031 v 2.24658 q 2.32063,-1.23438 4.07345,-1.82689 1.77751,-0.5925 3.3822,-0.5925 2.93783,0 4.54252,1.8022 1.62938,1.80219 1.62938,4.88814 v 4.24627 l 0.0987,5.75221 q 0.0494,1.53063 0.32094,1.92563 0.29625,0.37032 1.62938,0.51844 l 0.8147,0.0494 v 1.7775 l -5.99909,-0.14812 -5.80159,0.14812 v -1.7775 q 1.65407,-0.0987 1.92564,-0.29626 0.29625,-0.1975 0.41968,-0.74062 0.14813,-0.56782 0.19751,-1.45657 l 0.0987,-4.54252 z"
         style="font-style:normal;font-variant:normal;font-weight:bold;font-stretch:normal;font-family:'Urdu Typesetting';-inkscape-font-specification:'Urdu Typesetting Bold';word-spacing:1.85208344px;fill:#f3f3f3;fill-opacity:1;stroke-width:0.52666873"
         id="path2679" />
      <path
         d="m 194.61254,241.33548 q 0,-2.5922 1.40719,-4.71534 1.40719,-2.12313 4.14752,-3.45626 2.74032,-1.33313 5.38189,-1.33313 3.75252,0 6.34472,0.81469 0.37031,3.85127 0.37031,6.29534 l -1.77751,0.27156 q -1.43188,-4.86345 -6.12252,-4.86345 -2.02438,0 -3.50564,1.33313 -1.48126,1.33313 -1.48126,3.35751 0,1.16032 0.64188,2.04907 0.66657,0.86407 1.77751,1.60469 1.13563,0.71594 4.61658,2.1972 3.85127,1.65407 5.65346,3.87595 1.80219,2.22189 1.80219,5.15971 0,2.83908 -1.40719,5.06096 -1.3825,2.22188 -4.19689,3.5797 -2.81439,1.33313 -5.99909,1.33313 -2.54282,0 -4.81408,-0.51844 -2.24657,-0.51844 -3.33282,-1.40719 -0.14813,-1.28376 -0.32094,-3.92533 -0.17282,-2.64157 -0.17282,-3.30814 l 1.62938,-0.34562 q 0.83938,3.43157 2.66627,5.18439 1.85157,1.75282 5.1597,1.75282 2.69095,0 4.04877,-1.3825 1.35782,-1.4072 1.35782,-3.72783 0,-1.30844 -0.61719,-2.27126 -0.61719,-0.9875 -1.70345,-1.77751 -1.06156,-0.79 -4.27095,-2.19719 -7.28284,-3.13533 -7.28284,-8.64066 z"
         style="font-style:normal;font-variant:normal;font-weight:bold;font-stretch:normal;font-family:'Urdu Typesetting';-inkscape-font-specification:'Urdu Typesetting Bold';word-spacing:1.85208344px;fill:#f3f3f3;fill-opacity:1;stroke-width:0.52666873"
         id="path2681" />
      <path
         d="m 226.48422,252.79052 0.0987,6.3694 q 0.0988,1.6047 0.41969,2.07376 0.32094,0.46907 1.48125,0.51844 l 0.86407,0.0494 v 1.7775 l -7.25815,-0.14812 -5.03627,0.14812 v -1.7775 l 1.60469,-0.12344 q 0.81469,-0.0494 1.06157,-0.46907 0.27156,-0.41969 0.37031,-2.04907 l 0.0988,-5.60408 v -2.54282 q 0,-1.85157 -0.12344,-2.86377 -0.12344,-1.03688 -0.41969,-1.58 -0.29625,-0.54313 -0.81469,-0.76532 -0.49375,-0.22219 -1.25907,-0.46906 l 0.12344,-1.48126 q 1.50595,-0.17281 4.29565,-0.69125 2.78969,-0.54313 3.28345,-0.74063 l 1.3825,0.41969 z m -7.25816,-19.7007 v -0.22219 q 0.71594,-0.37031 2.5922,-0.83938 1.87626,-0.46906 3.62908,-0.71594 l 1.62938,5.13502 -0.1975,0.32094 q -3.85127,0.93813 -5.65346,1.85157 z"
         style="font-style:normal;font-variant:normal;font-weight:bold;font-stretch:normal;font-family:'Urdu Typesetting';-inkscape-font-specification:'Urdu Typesetting Bold';word-spacing:1.85208344px;fill:#f3f3f3;fill-opacity:1;stroke-width:0.52666873"
         id="path2683" />
      <path
         d="m 244.2346,261.8015 v 1.7775 l -3.45626,-0.0987 -4.04877,-0.0494 -5.65346,0.14812 v -1.7775 l 1.45657,-0.0987 q 0.9875,-0.0494 1.25907,-0.59251 0.27156,-0.56781 0.27156,-1.85157 l 0.0987,-8.61597 v -7.1594 q 0,-3.99939 -0.17281,-10.34411 -1.62938,0.56782 -2.76501,0.81469 l -0.44438,-1.65407 q 1.92563,-0.46906 4.64127,-1.30844 2.71564,-0.83938 4.09814,-1.53063 l 1.35782,0.37031 q -0.395,5.13503 -0.395,11.77599 v 14.68912 q 0,2.64157 0.0741,3.62908 0.0987,0.96281 0.41969,1.33313 0.34563,0.37031 1.33313,0.44438 1.01219,0.0494 1.92563,0.0987 z"
         style="font-style:normal;font-variant:normal;font-weight:bold;font-stretch:normal;font-family:'Urdu Typesetting';-inkscape-font-specification:'Urdu Typesetting Bold';word-spacing:1.85208344px;fill:#f3f3f3;fill-opacity:1;stroke-width:0.52666873"
         id="path2685" />
      <path
         d="m 258.62748,259.0118 q 1.72813,-4.69065 2.9872,-8.54191 1.25907,-3.85127 1.25907,-4.64127 0,-0.5925 -0.41969,-0.79 -0.41969,-0.22219 -2.02439,-0.37032 v -1.77751 l 4.76471,0.14813 3.65377,-0.14813 v 1.77751 l -0.83938,0.0741 q -0.71594,0.0741 -1.23438,0.69126 -0.49375,0.5925 -1.08626,2.12313 l -5.67814,15.25694 q -3.65377,0.69125 -4.88815,1.16031 l -1.08625,-0.17281 -2.02439,-4.96221 q -3.82657,-9.57878 -4.91283,-11.85004 -0.44438,-0.88876 -0.74063,-1.30845 -0.27156,-0.44437 -0.51844,-0.61719 -0.24687,-0.1975 -1.55532,-0.395 v -1.77751 l 4.9869,0.14813 6.7644,-0.14813 v 1.77751 q -1.45657,0.0494 -1.90094,0.1975 -0.41969,0.14813 -0.41969,0.59251 0,0.66656 0.41969,1.72813 l 2.39469,6.69034 z"
         style="font-style:normal;font-variant:normal;font-weight:bold;font-stretch:normal;font-family:'Urdu Typesetting';-inkscape-font-specification:'Urdu Typesetting Bold';word-spacing:1.85208344px;fill:#f3f3f3;fill-opacity:1;stroke-width:0.52666873"
         id="path2687" />
      <path
         d="m 285.73447,252.49427 -8.69004,-0.17281 -0.0987,1.35782 q 0,3.33282 1.30844,5.20908 1.30845,1.87626 3.67846,1.87626 2.46876,0 5.13502,-1.4072 l 2.49344,-1.40719 1.13563,1.77751 -2.46876,1.75282 q -3.72782,2.66626 -8.29503,2.66626 -4.14752,0 -6.73971,-2.81439 -2.5922,-2.81438 -2.5922,-7.25815 0,-3.23408 1.62938,-5.87565 1.65407,-2.64157 4.54252,-4.12283 2.88845,-1.50594 6.22127,-1.50594 3.20939,0 5.55471,2.32063 2.34533,2.29595 2.86376,5.94971 z m -2.61689,-2.12313 q 1.13563,0 1.77751,-0.0987 -0.14813,-2.34532 -1.16032,-3.82658 -1.01219,-1.50594 -2.3947,-1.50594 -1.185,0 -2.32063,1.53063 -1.11094,1.53063 -1.58001,3.90064 z"
         style="font-style:normal;font-variant:normal;font-weight:bold;font-stretch:normal;font-family:'Urdu Typesetting';-inkscape-font-specification:'Urdu Typesetting Bold';word-spacing:1.85208344px;fill:#f3f3f3;fill-opacity:1;stroke-width:0.52666873"
         id="path2689" />
      <path
         d="m 302.69483,246.51987 q 2.39469,-2.3947 3.65376,-3.16001 1.25907,-0.79 2.1972,-0.79 1.03688,0 2.04907,0.37031 1.01219,0.34563 1.65407,0.76532 v 0.86406 q -0.27157,0.66657 -0.66657,2.29595 -0.395,1.60469 -0.46906,2.14782 h -1.18501 q -0.46906,-1.06157 -1.33313,-1.70344 -0.86406,-0.66657 -1.77751,-0.66657 -1.45656,0 -3.99939,2.24657 v 5.65346 l 0.0987,4.71533 q 0.0987,1.55532 0.44438,1.97501 0.34563,0.41969 1.50594,0.46907 l 1.82689,0.0987 v 1.7775 l -7.60378,-0.14812 -5.06096,0.14812 v -1.7775 l 1.11094,-0.17282 q 0.69125,-0.0987 0.93813,-0.61719 0.27156,-0.51844 0.34563,-1.82688 0.0987,-1.33313 0.0987,-5.7769 v -2.44407 q 0,-2.51814 -0.12344,-3.3822 -0.12344,-0.88875 -0.44438,-1.30844 -0.32094,-0.41969 -1.65407,-0.81469 l 0.12344,-1.48126 q 1.35782,-0.17281 7.08534,-1.55532 l 1.23438,0.32094 z"
         style="font-style:normal;font-variant:normal;font-weight:bold;font-stretch:normal;font-family:'Urdu Typesetting';-inkscape-font-specification:'Urdu Typesetting Bold';word-spacing:1.85208344px;fill:#f3f3f3;fill-opacity:1;stroke-width:0.52666873"
         id="path2691" />
      <path
         d="m 322.91399,244.93987 q -1.30844,0 -1.975,0.61719 -0.66657,0.61719 -0.66657,1.50594 0,2.04907 4.69065,3.48095 3.23407,1.18501 4.49314,2.66626 1.25907,1.45657 1.25907,3.50564 0,3.23408 -2.51814,5.20908 -2.49345,1.97501 -6.3694,1.97501 -4.44377,0 -6.93721,-1.50594 l -0.37032,-5.62877 1.72813,-0.22219 q 1.6047,4.98689 5.72753,4.98689 1.58,0 2.51813,-0.66656 0.96282,-0.69126 0.96282,-1.95032 0,-1.77751 -3.06126,-2.86376 -3.65377,-1.25907 -4.91284,-2.12314 -1.23438,-0.86406 -1.92563,-1.97501 -0.66656,-1.13563 -0.66656,-2.64157 0,-1.90094 1.11094,-3.3822 1.11094,-1.48126 3.3822,-2.41939 2.27126,-0.93812 4.39439,-0.93812 3.35751,0 5.28315,0.91344 l 0.14812,4.93752 -1.67875,0.22219 q -1.55532,-3.70314 -4.61659,-3.70314 z"
         style="font-style:normal;font-variant:normal;font-weight:bold;font-stretch:normal;font-family:'Urdu Typesetting';-inkscape-font-specification:'Urdu Typesetting Bold';word-spacing:1.85208344px;fill:#f3f3f3;fill-opacity:1;stroke-width:0.52666873"
         id="path2693" />
      <path
         d="m 333.50495,244.14986 q 1.92563,-1.28375 5.40659,-4.02408 l 1.70344,-1.30844 1.62938,0.27156 -0.12344,3.95002 h 7.20878 l 0.17282,0.61719 -0.79001,1.90095 -6.59159,-0.22219 -0.0987,6.54221 v 5.75221 q 0,1.58001 0.79001,2.46876 0.81469,0.86407 2.19719,0.86407 1.2097,0 4.32033,-1.33313 l 0.81469,1.85157 q -5.06095,2.66626 -8.66534,2.66626 -2.44408,0 -4.02408,-1.58001 -1.55532,-1.60469 -1.55532,-3.9747 v -13.20787 h -2.22188 z"
         style="font-style:normal;font-variant:normal;font-weight:bold;font-stretch:normal;font-family:'Urdu Typesetting';-inkscape-font-specification:'Urdu Typesetting Bold';word-spacing:1.85208344px;fill:#f3f3f3;fill-opacity:1;stroke-width:0.52666873"
         id="path2695" />
      <path
         d="m 367.40103,252.49427 -8.69003,-0.17281 -0.0987,1.35782 q 0,3.33282 1.30844,5.20908 1.30844,1.87626 3.67845,1.87626 2.46876,0 5.13502,-1.4072 l 2.49345,-1.40719 1.13563,1.77751 -2.46876,1.75282 q -3.72783,2.66626 -8.29503,2.66626 -4.14752,0 -6.73972,-2.81439 -2.5922,-2.81438 -2.5922,-7.25815 0,-3.23408 1.62939,-5.87565 1.65406,-2.64157 4.54251,-4.12283 2.88845,-1.50594 6.22128,-1.50594 3.20939,0 5.55471,2.32063 2.34532,2.29595 2.86376,5.94971 z m -2.61688,-2.12313 q 1.13563,0 1.7775,-0.0987 -0.14812,-2.34532 -1.16031,-3.82658 -1.0122,-1.50594 -2.3947,-1.50594 -1.18501,0 -2.32064,1.53063 -1.11094,1.53063 -1.58,3.90064 z"
         style="font-style:normal;font-variant:normal;font-weight:bold;font-stretch:normal;font-family:'Urdu Typesetting';-inkscape-font-specification:'Urdu Typesetting Bold';word-spacing:1.85208344px;fill:#f3f3f3;fill-opacity:1;stroke-width:0.52666873"
         id="path2697" />
      <path
         d="m 384.48486,252.79052 0.0987,6.3694 q 0.0987,1.6047 0.41969,2.07376 0.32094,0.46907 1.48125,0.51844 l 0.86407,0.0494 v 1.7775 l -7.25815,-0.14812 -5.03627,0.14812 v -1.7775 l 1.60469,-0.12344 q 0.81469,-0.0494 1.06157,-0.46907 0.27156,-0.41969 0.37031,-2.04907 l 0.0987,-5.60408 v -2.54282 q 0,-1.85157 -0.12344,-2.86377 -0.12343,-1.03688 -0.41969,-1.58 -0.29625,-0.54313 -0.81469,-0.76532 -0.49375,-0.22219 -1.25906,-0.46906 l 0.12343,-1.48126 q 1.50595,-0.17281 4.29565,-0.69125 2.78969,-0.54313 3.28345,-0.74063 l 1.3825,0.41969 z m -7.25816,-19.7007 v -0.22219 q 0.71595,-0.37031 2.5922,-0.83938 1.87626,-0.46906 3.62908,-0.71594 l 1.62938,5.13502 -0.1975,0.32094 q -3.85126,0.93813 -5.65346,1.85157 z"
         style="font-style:normal;font-variant:normal;font-weight:bold;font-stretch:normal;font-family:'Urdu Typesetting';-inkscape-font-specification:'Urdu Typesetting Bold';word-spacing:1.85208344px;fill:#f3f3f3;fill-opacity:1;stroke-width:0.52666873"
         id="path2699" />
      <path
         d="m 405.9137,249.72926 q 0,-3.92533 -3.77721,-3.92533 -1.33313,0 -3.53032,1.25907 v 7.70253 q 0,0.37031 0.0494,2.83907 0.0494,2.44408 0.22219,3.16002 0.1975,0.71594 0.76532,0.88875 0.56781,0.14813 1.60469,0.14813 v 1.7775 l -6.3694,-0.14812 -5.06096,0.14812 v -1.7775 l 0.86407,-0.0494 q 1.03688,-0.0494 1.28375,-0.5925 0.24688,-0.56782 0.29625,-3.75252 0.0494,-3.20938 0.0494,-3.85126 v -2.86376 q 0,-1.43188 -0.12344,-2.29595 -0.12344,-0.88875 -0.37031,-1.40719 -0.24688,-0.54313 -0.66657,-0.81469 -0.395,-0.29626 -1.60469,-0.74063 l 0.14812,-1.35782 q 1.48126,-0.17281 3.90064,-0.74063 2.41939,-0.5925 3.75252,-0.91344 l 1.23438,0.37031 v 2.24658 q 2.32063,-1.23438 4.07345,-1.82689 1.77751,-0.5925 3.3822,-0.5925 2.93783,0 4.54252,1.8022 1.62938,1.80219 1.62938,4.88814 v 4.24627 l 0.0987,5.75221 q 0.0494,1.53063 0.32094,1.92563 0.29625,0.37032 1.62938,0.51844 l 0.8147,0.0494 v 1.7775 l -5.99909,-0.14812 -5.80159,0.14812 v -1.7775 q 1.65407,-0.0987 1.92564,-0.29626 0.29625,-0.1975 0.41968,-0.74062 0.14813,-0.56782 0.19751,-1.45657 l 0.0987,-4.54252 z"
         style="font-style:normal;font-variant:normal;font-weight:bold;font-stretch:normal;font-family:'Urdu Typesetting';-inkscape-font-specification:'Urdu Typesetting Bold';word-spacing:1.85208344px;fill:#f3f3f3;fill-opacity:1;stroke-width:0.52666873"
         id="path2701" />
    </g>
    <g
       aria-label="Fullstack {Coder}"
       transform="scale(0.94802438,1.0548252)"
       style="font-style:normal;font-variant:normal;font-weight:bold;font-stretch:normal;font-size:32.02863693px;line-height:1.25;font-family:cooperStd;-inkscape-font-specification:'cooperStd Bold';letter-spacing:0px;word-spacing:0px;fill:#c00000;fill-opacity:0;stroke:#c0392b;stroke-width:1.4842087;stroke-miterlimit:4;stroke-dasharray:none;stroke-opacity:1"
       id="text5350-7-8-7-89">
      <path
         d="m 278.5262,284.81974 c 0,1.05694 -0.0961,3.33097 -0.41637,4.22778 -0.67261,1.69751 -2.40215,0.86477 -2.40215,2.65837 0,1.37723 0.83274,2.11389 5.95732,2.11389 7.78296,0 7.49471,-1.40926 7.49471,-2.14592 0,-2.43417 -3.2349,0.19218 -3.10678,-4.54806 0.032,-3.29895 -0.16015,-3.55518 1.24911,-3.55518 3.42707,0 1.31318,3.61924 3.36301,3.61924 2.17795,0 2.33809,-3.87547 2.33809,-5.38082 0,-1.24911 -0.12811,-4.74023 -1.95374,-4.74023 -2.24201,0 -0.67261,2.94663 -3.13881,2.94663 -1.85766,0 -1.88969,-0.54449 -1.88969,-1.121 0,-4.64415 0.83274,-4.48401 2.78649,-4.48401 6.1495,0 4.99647,3.29895 7.20644,3.29895 1.21709,0 1.72955,-1.121 1.72955,-2.20998 0,-2.17794 -1.31317,-4.70821 -2.56229,-4.70821 -0.4484,0 -6.88616,0.32029 -7.52673,0.32029 -2.65838,0 -8.42353,-0.32029 -9.25628,-0.32029 -1.02491,0 -2.43417,0.51246 -2.43417,1.72955 0,1.76157 2.08186,0.48043 2.4662,3.23489 0.16015,1.24912 0.12812,3.29895 0.0961,4.61213 z"
         style="font-style:normal;font-variant:normal;font-weight:bold;font-stretch:normal;font-family:cooperStd;-inkscape-font-specification:'cooperStd Bold';letter-spacing:0.36331925px;word-spacing:0.84101421px;fill:#c00000;fill-opacity:0;stroke:#c0392b;stroke-width:1.4842087;stroke-miterlimit:4;stroke-dasharray:none;stroke-opacity:1"
         id="path2704" />
      <path
         d="m 307.53313,278.41401 c 0,-0.80072 -0.0961,-1.21709 -0.99289,-1.21709 -0.25623,0 -8.32745,0.0961 -8.32745,2.14592 0,2.11389 2.20998,-0.032 2.20998,4.86835 0,4.8043 -0.51246,9.60859 5.57298,9.60859 1.40926,0 2.43418,-0.48043 3.20287,-0.96086 0.76868,-0.48043 1.28114,-0.96085 1.63346,-0.96085 1.28114,0 -0.35232,1.92171 2.11389,1.92171 1.76157,0 7.43064,-0.60854 7.43064,-2.78649 0,-1.53737 -1.76157,-0.64057 -1.76157,-2.56229 v -6.43776 c 0,-1.02491 0.064,-2.0178 0.064,-3.04272 0,-1.121 -0.48043,-1.7936 -1.63346,-1.7936 -1.21709,0 -7.65484,0.32029 -7.65484,2.20998 0,1.3452 1.5694,0.80071 1.82563,2.40214 0.16014,1.02492 0.12812,2.40215 0.12812,3.4591 0,1.53737 0.32028,4.54806 -1.98578,4.54806 -1.72955,0 -1.82563,-1.98577 -1.82563,-3.26692 z"
         style="font-style:normal;font-variant:normal;font-weight:bold;font-stretch:normal;font-family:cooperStd;-inkscape-font-specification:'cooperStd Bold';letter-spacing:0.36331925px;word-spacing:0.84101421px;fill:#c00000;fill-opacity:0;stroke:#c0392b;stroke-width:1.4842087;stroke-miterlimit:4;stroke-dasharray:none;stroke-opacity:1"
         id="path2706" />
      <path
         d="m 331.1137,281.52079 c 0,-4.5801 0.41638,-8.10325 0.41638,-8.83991 0,-0.96086 -0.25623,-1.66549 -1.34521,-1.66549 -0.4484,0 -8.77584,0.67261 -8.77584,3.4591 0,1.82563 1.88969,0.99288 2.37012,3.363 0.28825,1.44129 0.2242,3.84344 0.2242,5.09256 0,1.5694 0,5.57298 -0.41638,6.88615 -0.38434,1.18506 -1.76157,0.76869 -1.76157,1.88969 0,2.27404 4.48401,2.11389 5.9253,2.11389 1.37723,0 5.28472,0.16015 5.28472,-1.98577 0,-1.3452 -1.44129,-0.80072 -1.7936,-1.95375 -0.16014,-0.51246 -0.12812,-1.5694 -0.12812,-2.14592 z"
         style="font-style:normal;font-variant:normal;font-weight:bold;font-stretch:normal;font-family:cooperStd;-inkscape-font-specification:'cooperStd Bold';letter-spacing:0.36331925px;word-spacing:0.84101421px;fill:#c00000;fill-opacity:0;stroke:#c0392b;stroke-width:1.4842087;stroke-miterlimit:4;stroke-dasharray:none;stroke-opacity:1"
         id="path2708" />
      <path
         d="m 343.80054,281.52079 c 0,-4.5801 0.41637,-8.10325 0.41637,-8.83991 0,-0.96086 -0.25623,-1.66549 -1.3452,-1.66549 -0.4484,0 -8.77585,0.67261 -8.77585,3.4591 0,1.82563 1.88969,0.99288 2.37012,3.363 0.28826,1.44129 0.2242,3.84344 0.2242,5.09256 0,1.5694 0,5.57298 -0.41637,6.88615 -0.38434,1.18506 -1.76157,0.76869 -1.76157,1.88969 0,2.27404 4.48401,2.11389 5.92529,2.11389 1.37724,0 5.28473,0.16015 5.28473,-1.98577 0,-1.3452 -1.44129,-0.80072 -1.7936,-1.95375 -0.16015,-0.51246 -0.12812,-1.5694 -0.12812,-2.14592 z"
         style="font-style:normal;font-variant:normal;font-weight:bold;font-stretch:normal;font-family:cooperStd;-inkscape-font-specification:'cooperStd Bold';letter-spacing:0.36331925px;word-spacing:0.84101421px;fill:#c00000;fill-opacity:0;stroke:#c0392b;stroke-width:1.4842087;stroke-miterlimit:4;stroke-dasharray:none;stroke-opacity:1"
         id="path2710" />
      <path
         d="m 353.79698,277.10083 c -3.29895,0 -5.9253,2.01781 -5.9253,5.22067 0,5.28473 6.27761,5.50893 6.27761,7.39862 0,0.70463 -0.60854,1.02491 -1.24912,1.02491 -1.7936,0 -3.07475,-3.17083 -4.48401,-3.17083 -0.92883,0 -1.21708,0.6726 -1.21708,1.50535 0,1.21708 0.80071,3.04272 1.60143,3.93952 0.4484,0.51246 0.76869,0.60854 1.40926,0.60854 0.2242,0 0.41637,-0.032 0.60854,-0.0641 0.2242,-0.032 0.41637,-0.0641 0.64057,-0.0641 0.19218,0 0.89681,0.0961 1.69752,0.19217 0.80072,0.12811 1.72955,0.2242 2.37012,0.2242 3.33098,0 6.24559,-2.08186 6.24559,-5.09255 0,-4.96444 -7.0463,-5.34879 -7.0463,-7.39862 0,-0.60854 0.57651,-1.08897 1.15303,-1.08897 1.40926,0 2.43417,2.53026 4.25981,2.53026 0.83274,0 1.5694,-0.64057 1.5694,-1.50535 0,-1.31317 -1.47332,-4.25981 -2.94664,-4.25981 -0.28825,0 -0.57651,0.0961 -0.86477,0.19218 -0.28826,0.12811 -0.54449,0.2242 -0.86477,0.2242 -0.2242,0 -0.73666,-0.0961 -1.31318,-0.2242 -0.60854,-0.0961 -1.28114,-0.19218 -1.92171,-0.19218 z"
         style="font-style:normal;font-variant:normal;font-weight:bold;font-stretch:normal;font-family:cooperStd;-inkscape-font-specification:'cooperStd Bold';letter-spacing:0.36331925px;word-spacing:0.84101421px;fill:#c00000;fill-opacity:0;stroke:#c0392b;stroke-width:1.4842087;stroke-miterlimit:4;stroke-dasharray:none;stroke-opacity:1"
         id="path2712" />
      <path
         d="m 373.27989,281.77702 c 0,-1.15304 0.0641,-1.18506 1.18506,-1.18506 h 2.20997 c 1.24912,0 1.47332,-0.12812 1.47332,-1.95375 0,-1.44129 0,-1.53738 -1.37723,-1.53738 h -2.242 c -0.83275,0 -1.05695,0 -1.15303,-0.25622 -0.16015,-0.38435 -0.0961,-1.37724 -0.0961,-2.37012 0,-1.47332 -0.0641,-1.34521 -1.3452,-1.34521 -0.96086,0 -0.92883,-0.0961 -1.66549,0.35232 l -7.30253,4.64415 c -0.38435,0.25623 -0.28826,0.60855 -0.28826,1.05695 0,0.73665 -0.0641,1.05694 0.16014,1.28114 0.16015,0.16014 0.57652,0.12812 1.40926,0.12812 0.73666,0 1.08898,-0.0641 1.24912,0.032 0.16014,0.0961 0.16014,0.32029 0.16014,0.89681 v 6.5979 c 0,5.09255 4.09967,5.79718 5.73313,5.79718 3.23489,0 6.88616,-1.85766 6.88616,-3.97155 0,-0.57652 -0.4484,-1.47332 -1.08898,-1.47332 -0.57651,0 -1.15303,0.73666 -2.14592,0.73666 -0.86477,0 -1.76157,-0.51246 -1.76157,-2.65838 z"
         style="font-style:normal;font-variant:normal;font-weight:bold;font-stretch:normal;font-family:cooperStd;-inkscape-font-specification:'cooperStd Bold';letter-spacing:0.36331925px;word-spacing:0.84101421px;fill:#c00000;fill-opacity:0;stroke:#c0392b;stroke-width:1.4842087;stroke-miterlimit:4;stroke-dasharray:none;stroke-opacity:1"
         id="path2714" />
      <path
         d="m 387.77834,286.58131 c 0.89681,0 0.86478,0.80072 0.86478,1.50535 0,0.96086 -0.0961,2.27403 -1.31318,2.27403 -0.92883,0 -1.37723,-0.8968 -1.37723,-1.72955 0,-1.02491 0.73666,-2.04983 1.82563,-2.04983 z m 7.78296,-3.97155 c 0,-4.8043 -4.99647,-5.50893 -6.8221,-5.50893 -3.04272,0 -8.45556,1.76158 -8.45556,4.48401 0,1.02492 0.76869,1.76158 1.79361,1.76158 2.85054,0 3.04272,-3.45909 4.96443,-3.45909 1.47332,0 1.50535,2.20997 1.50535,3.26692 0,1.15303 -0.4484,1.08897 -1.44129,1.08897 -5.63704,0 -7.81499,2.81852 -7.81499,5.09255 0,3.17084 2.65838,4.5801 5.31676,4.5801 1.47332,0 2.43417,-0.41637 3.1388,-0.83275 0.70463,-0.38434 1.12101,-0.80071 1.50535,-0.80071 0.80072,0 0.86477,1.63346 3.39504,1.63346 2.33809,0 4.83632,-1.98578 4.83632,-3.81141 0,-1.72955 -1.92172,1.3452 -1.92172,-4.29184 z"
         style="font-style:normal;font-variant:normal;font-weight:bold;font-stretch:normal;font-family:cooperStd;-inkscape-font-specification:'cooperStd Bold';letter-spacing:0.36331925px;word-spacing:0.84101421px;fill:#c00000;fill-opacity:0;stroke:#c0392b;stroke-width:1.4842087;stroke-miterlimit:4;stroke-dasharray:none;stroke-opacity:1"
         id="path2716" />
      <path
         d="m 398.82972,285.46031 c 0,4.90038 3.90749,8.45556 8.74382,8.45556 4.48401,0 7.36658,-2.43418 7.36658,-4.32387 0,-0.76868 -0.57651,-1.72954 -1.44128,-1.72954 -0.67261,0 -1.34521,0.83274 -3.36301,0.83274 -2.53026,0 -4.29184,-2.40215 -4.29184,-4.77227 0,-1.28114 0.76869,-2.72243 2.17795,-2.72243 2.53026,0 0.92883,3.97155 4.38792,3.97155 1.79361,0 3.13881,-1.37723 3.13881,-3.17083 0,-2.24201 -2.53026,-4.90039 -7.33456,-4.90039 -5.38081,0 -9.38439,3.74736 -9.38439,8.35948 z"
         style="font-style:normal;font-variant:normal;font-weight:bold;font-stretch:normal;font-family:cooperStd;-inkscape-font-specification:'cooperStd Bold';letter-spacing:0.36331925px;word-spacing:0.84101421px;fill:#c00000;fill-opacity:0;stroke:#c0392b;stroke-width:1.4842087;stroke-miterlimit:4;stroke-dasharray:none;stroke-opacity:1"
         id="path2718" />
      <path
         d="m 431.11708,292.41052 c 0.76869,0.99289 0.92884,1.05695 2.20998,1.05695 h 4.51604 c 2.4662,0 3.20286,-0.86477 3.20286,-1.85766 0,-1.34521 -1.76157,-1.31318 -3.20286,-3.10678 -0.60855,-0.73666 -4.3559,-5.34878 -4.3559,-6.1495 0,-0.38434 1.24912,-1.02492 1.56941,-1.18506 1.92172,-1.18506 3.10677,-0.51246 3.10677,-1.95375 0,-1.98577 -3.49112,-2.0178 -4.80429,-2.0178 -1.121,0 -4.38792,0.0961 -4.38792,1.76158 0,0.64057 0.64057,0.8968 0.64057,1.3452 0,0.48043 -2.04983,1.5694 -2.56229,1.5694 -0.76869,0 -0.76869,-0.80071 -0.70463,-2.85055 l 0.16014,-6.79007 c 0.032,-0.70463 -0.032,-1.21709 -0.8968,-1.21709 -1.69752,0 -8.93599,1.56941 -8.93599,3.71533 0,1.82563 2.4662,0.0961 2.4662,2.6904 v 4.5801 c 0,1.40926 -0.16014,4.45198 -0.25622,6.69398 -0.0961,2.69041 -1.79361,1.5694 -1.79361,3.10678 0,2.11389 2.97866,2.0178 5.60501,2.0178 4.99647,0 5.22067,-1.31317 5.22067,-2.20997 0,-1.50535 -1.40926,-0.54449 -1.31317,-3.39504 0,-0.19217 -0.032,-0.8968 0.32028,-0.8968 0.32029,0 1.08898,1.08897 1.21709,1.28115 z"
         style="font-style:normal;font-variant:normal;font-weight:bold;font-stretch:normal;font-family:cooperStd;-inkscape-font-specification:'cooperStd Bold';letter-spacing:0.36331925px;word-spacing:0.84101421px;fill:#c00000;fill-opacity:0;stroke:#c0392b;stroke-width:1.4842087;stroke-miterlimit:4;stroke-dasharray:none;stroke-opacity:1"
         id="path2720" />
      <path
         d="m 463.6224,286.35711 c 0,-2.37012 -0.48043,-3.90749 -3.04272,-4.22778 v -0.0961 c 2.56229,-0.35231 3.04272,-1.85766 3.04272,-4.22778 V 271.688 c 0,-0.99289 0.25623,-1.53738 1.37723,-1.53738 1.12101,0 1.31318,-0.86477 1.31318,-1.18506 0,-0.35231 -0.19217,-1.18506 -1.31318,-1.18506 h -2.97866 c -2.88258,0 -4.54807,1.28115 -4.54807,4.51604 v 6.98224 c 0,1.02492 -0.25622,1.56941 -1.37723,1.56941 -1.121,0 -1.31317,0.83274 -1.31317,1.21708 0,0.38435 0.19217,1.24912 1.31317,1.24912 1.12101,0 1.37723,0.54449 1.37723,1.53737 v 7.33456 c 0,3.2349 1.66549,4.51604 4.54807,4.51604 h 2.97866 c 1.12101,0 1.31318,-0.83274 1.31318,-1.18506 0,-0.32029 -0.19217,-1.18506 -1.31318,-1.18506 -1.121,0 -1.37723,-0.54449 -1.37723,-1.53737 z"
         style="font-style:normal;font-variant:normal;font-weight:bold;font-stretch:normal;font-family:cooperStd;-inkscape-font-specification:'cooperStd Bold';letter-spacing:0.36331925px;word-spacing:0.84101421px;fill:#c00000;fill-opacity:0;stroke:#c0392b;stroke-width:1.4842087;stroke-miterlimit:4;stroke-dasharray:none;stroke-opacity:1"
         id="path2722" />
      <path
         d="m 470.59764,282.16136 c 0,6.43776 5.50892,11.75451 12.23494,11.75451 3.77937,0 6.02138,-1.85766 7.11035,-1.85766 1.60143,0 3.07475,-2.94664 3.07475,-4.3559 0,-0.80071 -0.4484,-1.88969 -1.37723,-1.88969 -0.99289,0 -1.60143,2.20998 -5.66907,2.20998 -4.48401,0 -7.01427,-4.03561 -7.01427,-8.77585 0,-1.76157 1.02492,-4.06763 3.49112,-4.06763 5.7011,0 4.86835,5.66907 8.1673,5.66907 1.88969,0 2.97867,-1.53738 2.97867,-3.36301 0,-3.55518 -1.72955,-5.57298 -3.07475,-5.57298 -0.54449,0 -0.73666,0.2242 -1.44129,0.2242 -0.83274,0 -2.85055,-1.56941 -5.98936,-1.56941 -6.30964,0 -12.49116,5.0285 -12.49116,11.59437 z"
         style="font-style:normal;font-variant:normal;font-weight:bold;font-stretch:normal;font-family:cooperStd;-inkscape-font-specification:'cooperStd Bold';letter-spacing:0.36331925px;word-spacing:0.84101421px;fill:#c00000;fill-opacity:0;stroke:#c0392b;stroke-width:1.4842087;stroke-miterlimit:4;stroke-dasharray:none;stroke-opacity:1"
         id="path2724" />
      <path
         d="m 503.75377,293.91587 c 4.70821,0 10.34525,-3.20286 10.34525,-8.45556 0,-3.97155 -3.20286,-8.35948 -8.80787,-8.35948 -5.28473,0 -10.31322,3.2349 -10.31322,8.96802 0,5.06053 4.03561,7.84702 8.77584,7.84702 z m 2.97867,-6.02138 c 0,1.02491 -0.25623,2.04983 -1.47332,1.98577 -2.20998,-0.12811 -2.78649,-5.06052 -2.91461,-7.07833 -0.0641,-0.92883 0.51246,-1.92172 1.56941,-1.92172 2.17795,0 2.81852,5.57299 2.81852,7.01428 z"
         style="font-style:normal;font-variant:normal;font-weight:bold;font-stretch:normal;font-family:cooperStd;-inkscape-font-specification:'cooperStd Bold';letter-spacing:0.36331925px;word-spacing:0.84101421px;fill:#c00000;fill-opacity:0;stroke:#c0392b;stroke-width:1.4842087;stroke-miterlimit:4;stroke-dasharray:none;stroke-opacity:1"
         id="path2726" />
      <path
         d="m 527.81228,284.56351 c 0,1.40926 0.12811,5.34878 -2.01781,5.34878 -1.98577,0 -2.37011,-2.62635 -2.37011,-4.13169 0,-1.50535 0.38434,-5.18864 2.53026,-5.18864 1.85766,0 1.85766,2.72243 1.85766,3.97155 z m 7.07833,-11.81857 c 0,-1.05694 -0.2242,-1.72955 -1.18506,-1.72955 -0.0961,0 -8.26339,0.60855 -8.26339,2.97867 0,1.72954 2.33809,0.6726 2.33809,2.65837 0,0.35232 -0.032,1.40926 -0.51246,1.40926 -0.35231,0 -1.60143,-0.96086 -3.81141,-0.96086 -4.41995,0 -7.87904,4.16373 -7.87904,8.42354 0,3.93952 3.26692,8.3915 7.46267,8.3915 1.40926,0 2.40215,-0.48043 3.13881,-0.92883 0.73666,-0.48043 1.21709,-0.92883 1.50534,-0.92883 1.05695,0 -0.0961,1.76157 1.53738,1.76157 0.35231,0 7.36658,-0.16014 7.36658,-2.59432 0,-1.66549 -1.69751,-0.92883 -1.69751,-3.17083 z"
         style="font-style:normal;font-variant:normal;font-weight:bold;font-stretch:normal;font-family:cooperStd;-inkscape-font-specification:'cooperStd Bold';letter-spacing:0.36331925px;word-spacing:0.84101421px;fill:#c00000;fill-opacity:0;stroke:#c0392b;stroke-width:1.4842087;stroke-miterlimit:4;stroke-dasharray:none;stroke-opacity:1"
         id="path2728" />
      <path
         d="m 552.69652,286.10088 c 1.02491,0 1.98577,-0.28826 1.98577,-2.40215 0,-2.40214 -2.40215,-6.5979 -7.84702,-6.5979 -4.80429,0 -9.00004,3.58721 -9.00004,8.51962 0,4.1317 2.97866,8.29542 8.74382,8.29542 2.88257,0 7.39861,-1.7936 7.39861,-4.25981 0,-0.60854 -0.57651,-1.60143 -1.24912,-1.60143 -0.6726,0 -1.85766,1.44129 -4.2598,1.44129 -1.50535,0 -3.58721,-1.34521 -3.58721,-2.94664 0,-0.54448 0.51246,-0.4484 0.86477,-0.4484 z m -6.05342,-3.07475 c -0.83274,0 -1.92172,0.25623 -1.92172,-0.8968 0,-1.02492 0.86478,-2.11389 1.92172,-2.11389 1.18506,0 1.88969,0.8968 1.88969,2.04983 0,1.15303 -1.02491,0.96086 -1.88969,0.96086 z"
         style="font-style:normal;font-variant:normal;font-weight:bold;font-stretch:normal;font-family:cooperStd;-inkscape-font-specification:'cooperStd Bold';letter-spacing:0.36331925px;word-spacing:0.84101421px;fill:#c00000;fill-opacity:0;stroke:#c0392b;stroke-width:1.4842087;stroke-miterlimit:4;stroke-dasharray:none;stroke-opacity:1"
         id="path2730" />
      <path
         d="m 557.98075,285.68451 c 0,0.8968 -0.0961,2.72243 -0.35232,3.52315 -0.35231,1.121 -1.82563,1.121 -1.82563,2.4662 0,2.20998 4.35589,2.14592 5.82921,2.14592 3.52315,0 6.34167,-0.16014 6.34167,-2.17794 0,-1.92172 -2.43417,-1.05695 -2.62635,-2.46621 -0.16014,-1.21709 -0.25623,-2.56229 -0.25623,-3.52315 0,-0.57651 -0.16014,-2.72243 0.73666,-2.72243 0.83275,0 1.40926,1.82563 3.49112,1.82563 2.11389,0 3.93953,-1.69752 3.93953,-3.84344 0,-2.11389 -1.40926,-3.71532 -3.55518,-3.71532 -2.75446,0 -3.23489,2.53026 -4.00358,2.53026 -0.54449,0 -0.51246,-0.73666 -0.54449,-1.121 -0.12811,-1.08897 -0.16014,-1.40926 -1.37723,-1.40926 -0.28826,0 -7.78296,0.70463 -7.78296,3.23489 0,1.95375 1.98578,0.19217 1.98578,3.33098 z"
         style="font-style:normal;font-variant:normal;font-weight:bold;font-stretch:normal;font-family:cooperStd;-inkscape-font-specification:'cooperStd Bold';letter-spacing:0.36331925px;word-spacing:0.84101421px;fill:#c00000;fill-opacity:0;stroke:#c0392b;stroke-width:1.4842087;stroke-miterlimit:4;stroke-dasharray:none;stroke-opacity:1"
         id="path2732" />
      <path
         d="m 579.72318,292.79487 c 0,0.99288 -0.25623,1.53737 -1.37723,1.53737 -1.121,0 -1.31318,0.86477 -1.31318,1.18506 0,0.35232 0.19218,1.18506 1.31318,1.18506 h 2.97866 c 2.88258,0 4.54807,-1.28114 4.54807,-4.51604 v -7.33456 c 0,-0.99288 0.25623,-1.53737 1.37723,-1.53737 1.121,0 1.31317,-0.86477 1.31317,-1.24912 0,-0.38434 -0.19217,-1.21708 -1.31317,-1.21708 -1.121,0 -1.37723,-0.54449 -1.37723,-1.56941 v -6.98224 c 0,-3.23489 -1.66549,-4.51604 -4.54807,-4.51604 h -2.97866 c -1.121,0 -1.31318,0.83275 -1.31318,1.18506 0,0.32029 0.19218,1.18506 1.31318,1.18506 1.121,0 1.37723,0.54449 1.37723,1.53738 v 6.11746 c 0,2.37012 0.48043,3.87547 3.04272,4.22778 v 0.0961 c -2.56229,0.32029 -3.04272,1.85766 -3.04272,4.22778 z"
         style="font-style:normal;font-variant:normal;font-weight:bold;font-stretch:normal;font-family:cooperStd;-inkscape-font-specification:'cooperStd Bold';letter-spacing:0.36331925px;word-spacing:0.84101421px;fill:#c00000;fill-opacity:0;stroke:#c0392b;stroke-width:1.4842087;stroke-miterlimit:4;stroke-dasharray:none;stroke-opacity:1"
         id="path2734" />
    </g>
  </g>
</svg>
