<?xml version="1.0" encoding="UTF-8" standalone="no"?>
<!-- Created with Inkscape (http://www.inkscape.org/) -->

<svg
   xmlns:dc="http://purl.org/dc/elements/1.1/"
   xmlns:cc="http://creativecommons.org/ns#"
   xmlns:rdf="http://www.w3.org/1999/02/22-rdf-syntax-ns#"
   xmlns:svg="http://www.w3.org/2000/svg"
   xmlns="http://www.w3.org/2000/svg"
   xmlns:sodipodi="http://sodipodi.sourceforge.net/DTD/sodipodi-0.dtd"
   xmlns:inkscape="http://www.inkscape.org/namespaces/inkscape"
   width="600"
   height="300"
   viewBox="0 0 158.74999 79.375002"
   version="1.1"
   id="svg8"
   inkscape:version="0.92.3 (2405546, 2018-03-11)"
   sodipodi:docname="text-test.svg">
  <defs
     id="defs2" />
  <sodipodi:namedview
     id="base"
     pagecolor="#ffffff"
     bordercolor="#666666"
     borderopacity="1.0"
     inkscape:pageopacity="0.0"
     inkscape:pageshadow="2"
     inkscape:zoom="2"
     inkscape:cx="275.88"
     inkscape:cy="114.06794"
     inkscape:document-units="mm"
     inkscape:current-layer="layer1"
     showgrid="false"
     units="px"
     width="600px"
     inkscape:snap-text-baseline="false"
     inkscape:window-width="1920"
     inkscape:window-height="1003"
     inkscape:window-x="-9"
     inkscape:window-y="-9"
     inkscape:window-maximized="1" />
  <metadata
     id="metadata5">
    <rdf:RDF>
      <cc:Work
         rdf:about="">
        <dc:format>image/svg+xml</dc:format>
        <dc:type
           rdf:resource="http://purl.org/dc/dcmitype/StillImage" />
        <dc:title></dc:title>
      </cc:Work>
    </rdf:RDF>
  </metadata>
  <g
     inkscape:label="Layer 1"
     inkscape:groupmode="layer"
     id="layer1"
     transform="translate(0,-217.625)">
    <g
       aria-label="FUCK OFFFF"
       style="font-style:normal;font-variant:normal;font-weight:bold;font-stretch:normal;font-size:22.57777786px;line-height:1.25;font-family:'Adobe Garamond Pro';-inkscape-font-specification:'Adobe Garamond Pro, Bold';font-variant-ligatures:normal;font-variant-caps:normal;font-variant-numeric:normal;font-feature-settings:normal;text-align:start;letter-spacing:0px;word-spacing:0px;writing-mode:lr-tb;text-anchor:start;fill:#000000;fill-opacity:1;stroke:none;stroke-width:0.26458332"
       id="text12">
      <path
         d="m 17.973322,252.84208 c 0,-0.88054 0,-0.92569 0.745066,-0.92569 h 1.761067 c 1.151467,0 1.8288,0.27093 2.212622,0.74507 0.225778,0.29351 0.4064,0.83537 0.654756,1.76106 0.270933,0.18062 0.767644,0.15805 0.857955,-0.0903 -0.04516,-1.51271 -0.185477,-3.98021 -0.185477,-4.36403 -0.316089,0.0452 -1.462706,0.9096 -2.907683,0.9096 l -2.309217,-0.70158 -2.432117,0.70158 c -1.041275,0.30037 -2.259394,-0.77095 -3.230238,-0.81605 -0.248356,0.0903 -0.201584,1.4031 0.0016,1.53857 l 0.451556,0.0677 c 1.016,0.15805 -1.213986,5.29958 -0.392016,7.23174 l 1.543482,3.62817 c 0.821975,1.93217 -0.135466,2.25778 -1.151466,2.41583 l -0.745067,0.11289 c -0.180622,0.13546 -0.180622,0.65475 0,0.79022 1.354667,-0.0452 2.483556,-0.0677 3.522133,-0.0677 1.083734,0 2.190045,0.0226 3.589867,0.0677 0.158044,-0.13547 0.158044,-0.65476 0,-0.79022 l -0.835378,-0.11289 c -1.016,-0.13547 -1.151466,-0.31609 -1.151466,-2.41583 v -3.048 c 0,-0.6096 0.02258,-0.67733 0.632177,-0.67733 h 1.738489 c 1.196622,0 1.444978,0.18062 1.670756,1.26436 l 0.112889,0.54186 c 0.158044,0.2032 0.722489,0.18063 0.857955,-0.0226 -0.04516,-0.67734 1.288663,-1.41918 1.288663,-2.25455 0,-0.85796 -1.333813,-1.78688 -1.288663,-2.50937 -0.135466,-0.2032 -0.699911,-0.22577 -0.857955,-0.0226 l -0.112889,0.54186 c -0.225778,1.10631 -0.474134,1.26436 -1.670756,1.26436 H 18.60549 c -0.6096,0 -0.632177,-0.0677 -0.632177,-0.67733 z"
         style="font-style:normal;font-variant:normal;font-weight:bold;font-stretch:normal;font-size:22.57777786px;font-family:'Adobe Garamond Pro';-inkscape-font-specification:'Adobe Garamond Pro, Bold';font-variant-ligatures:normal;font-variant-caps:normal;font-variant-numeric:normal;font-feature-settings:normal;text-align:start;writing-mode:lr-tb;text-anchor:start;fill:#ff7fef;fill-opacity:0;stroke:#ff2ed5;stroke-width:0.8001;stroke-linecap:square;stroke-linejoin:round;stroke-miterlimit:4;stroke-dasharray:none;stroke-dashoffset:0;stroke-opacity:0.61515152;paint-order:stroke fill markers"
         id="path33"
         inkscape:connector-curvature="0"
         sodipodi:nodetypes="cssccccscscccsscccscccsssscccscccsscc" />
      <path
         d="m 27.02313,259.77346 c 0,2.46097 0.496711,4.13173 1.670755,5.10257 1.2192,0.99343 2.754489,1.26436 4.4704,1.26436 1.8288,0 3.476978,-0.56445 4.4704,-1.6256 1.241778,-1.37725 1.444978,-3.31893 1.444978,-5.44125 v -2.52871 c 0,-1.8288 0.09031,-3.54471 0.338667,-4.13173 0.2032,-0.47413 0.632178,-0.6096 1.2192,-0.74507 l 0.4064,-0.0903 c 0.180622,-0.18062 0.135466,-0.63218 0,-0.76764 -0.857956,0.0452 -1.693334,0.0677 -2.528711,0.0677 -0.925689,0 -1.806223,-0.0226 -3.025423,-0.0677 -0.135466,0.13546 -0.180622,0.58702 0,0.76764 l 0.6096,0.11289 c 0.6096,0.11289 1.106312,0.24836 1.309512,0.72249 0.248355,0.58702 0.338666,2.30293 0.338666,4.13173 v 2.73191 c 0,3.09316 -0.880533,5.62187 -3.770489,5.62187 -3.431822,0 -3.725333,-2.91253 -3.725333,-5.55413 v -5.21547 c 0,-2.09973 0.135467,-2.28035 1.151467,-2.46098 l 0.541866,-0.0903 c 0.180622,-0.13546 0.180622,-0.63218 0,-0.76764 -1.083733,0.0452 -2.190044,0.0677 -3.296355,0.0677 -1.083734,0 -2.212623,-0.0226 -3.296356,-0.0677 -0.248355,0.13546 -0.225778,0.63218 -0.04516,0.76764 l 0.564444,0.11289 c 1.016,0.2032 1.151467,0.33867 1.151467,2.4384 z"
         style="font-style:normal;font-variant:normal;font-weight:bold;font-stretch:normal;font-size:22.57777786px;font-family:'Adobe Garamond Pro';-inkscape-font-specification:'Adobe Garamond Pro, Bold';font-variant-ligatures:normal;font-variant-caps:normal;font-variant-numeric:normal;font-feature-settings:normal;text-align:start;writing-mode:lr-tb;text-anchor:start;stroke-width:0.8001;fill:#ff7fef;fill-opacity:0;stroke:#ff2ed5;stroke-opacity:0.61515152;stroke-miterlimit:4;stroke-dasharray:none;stroke-dashoffset:0;stroke-linejoin:round;stroke-linecap:square;paint-order:stroke fill markers"
         id="path35" />
      <path
         d="m 51.164065,250.51657 c -2.348089,0 -4.651022,0.67733 -6.254044,2.00942 -1.557867,1.28693 -2.731911,3.22862 -2.731911,5.98311 0,2.79964 1.241778,4.6736 2.867378,5.91538 1.603022,1.19662 3.8608,1.71591 6.073422,1.71591 1.761066,0 3.364089,-0.49671 4.583289,-0.83538 0.316089,-0.51929 0.699911,-1.87395 0.857955,-3.54471 -0.135466,-0.27093 -0.677333,-0.33867 -0.857955,-0.15804 -0.6096,1.53528 -1.873956,3.49955 -4.605867,3.49955 -2.709333,0 -5.305778,-2.41582 -5.305778,-6.9088 0,-4.49298 2.686756,-6.63787 5.192889,-6.63787 2.190045,0 3.635022,1.12889 4.244622,3.22863 0.158045,0.2032 0.767645,0.11289 0.857956,-0.15805 -0.2032,-1.30951 -0.270933,-3.11573 -0.270933,-3.52213 -0.677334,-0.0452 -2.348089,-0.58702 -4.651023,-0.58702 z"
         style="font-style:normal;font-variant:normal;font-weight:bold;font-stretch:normal;font-size:22.57777786px;font-family:'Adobe Garamond Pro';-inkscape-font-specification:'Adobe Garamond Pro, Bold';font-variant-ligatures:normal;font-variant-caps:normal;font-variant-numeric:normal;font-feature-settings:normal;text-align:start;writing-mode:lr-tb;text-anchor:start;stroke-width:0.8001;fill:#ff7fef;fill-opacity:0;stroke:#ff2ed5;stroke-opacity:0.61515152;stroke-miterlimit:4;stroke-dasharray:none;stroke-dashoffset:0;stroke-linejoin:round;stroke-linecap:square;paint-order:stroke fill markers"
         id="path37" />
      <path
         d="m 62.643808,254.12901 c 0,-2.09973 0.135467,-2.30293 1.151467,-2.4384 l 0.632177,-0.0903 c 0.2032,-0.13547 0.2032,-0.65476 0,-0.79022 -1.196622,0.0452 -2.325511,0.0677 -3.409244,0.0677 -1.128889,0 -2.257778,-0.0226 -3.386667,-0.0677 -0.248355,0.13546 -0.248355,0.65475 0,0.79022 l 0.632178,0.0903 c 1.016,0.13547 1.151467,0.33867 1.151467,2.4384 v 8.39893 c 0,2.09974 -0.135467,2.30294 -1.151467,2.4384 l -0.632178,0.0903 c -0.180622,0.13546 -0.180622,0.65475 0,0.79022 1.196623,-0.0452 2.370667,-0.0677 3.386667,-0.0677 1.083733,0 2.212622,0.0226 3.409244,0.0677 0.180623,-0.13547 0.180623,-0.63218 0,-0.79022 l -0.632177,-0.0903 c -1.016,-0.13546 -1.151467,-0.33866 -1.151467,-2.4384 v -2.37066 c 0,-1.2192 0.02258,-1.53529 0.541867,-1.53529 0.496711,0 0.880533,0.54187 1.693333,1.78364 l 1.196622,1.8288 c 0.225778,0.33867 1.174045,1.80623 1.309511,2.00943 0.135467,0.2032 0.180623,0.36124 0.180623,0.45155 0,0.0903 -0.135467,0.15805 -0.383823,0.22578 l -0.564444,0.13547 c -0.248356,0.13546 -0.248356,0.69991 0.04515,0.79022 1.264356,-0.0452 2.393245,-0.0677 3.544712,-0.0677 1.038577,0 2.122311,0.0226 3.2512,0.0677 0.2032,-0.11289 0.2032,-0.58702 0.06773,-0.79022 l -0.722489,-0.11289 c -0.632178,-0.0903 -1.061156,-0.24836 -1.670756,-1.06116 -1.535288,-2.032 -2.867377,-4.19947 -3.996266,-5.8928 -0.677334,-1.016 -0.8128,-1.28693 -0.8128,-1.39982 0,-0.0903 0.06773,-0.27093 0.293511,-0.51929 l 1.038578,-1.17404 c 1.467555,-1.67076 2.4384,-2.52872 3.341511,-2.88996 0.474133,-0.2032 1.151466,-0.31609 1.941689,-0.4064 0.180622,-0.18062 0.158044,-0.69991 -0.112889,-0.79022 -0.903111,0.0452 -1.896534,0.0677 -2.731911,0.0677 -0.8128,0 -1.648178,-0.0226 -2.799645,-0.0677 -0.293511,0.0903 -0.338666,0.63218 -0.09031,0.79022 l 0.790222,0.13547 c 0.293511,0.0452 0.383823,0.2032 0.383823,0.29351 0,0.0903 -0.09031,0.29351 -0.293512,0.58702 -0.722488,1.06116 -2.032,2.46098 -3.228622,3.79307 -0.383822,0.42897 -1.332089,1.30951 -1.806222,1.30951 -0.270933,0 -0.4064,-0.0903 -0.4064,-0.83538 z"
         style="font-style:normal;font-variant:normal;font-weight:bold;font-stretch:normal;font-size:22.57777786px;font-family:'Adobe Garamond Pro';-inkscape-font-specification:'Adobe Garamond Pro, Bold';font-variant-ligatures:normal;font-variant-caps:normal;font-variant-numeric:normal;font-feature-settings:normal;text-align:start;writing-mode:lr-tb;text-anchor:start;stroke-width:0.8001;fill:#ff7fef;fill-opacity:0;stroke:#ff2ed5;stroke-opacity:0.61515152;stroke-miterlimit:4;stroke-dasharray:none;stroke-dashoffset:0;stroke-linejoin:round;stroke-linecap:square;paint-order:stroke fill markers"
         id="path39" />
      <path
         d="m 87.368234,250.51657 c -4.718755,0 -8.060266,3.4544 -8.060266,7.9248 0,4.71875 3.296355,7.69902 7.834489,7.69902 4.854222,0 8.150578,-2.95769 8.150578,-7.87965 0,-4.58328 -3.228623,-7.74417 -7.924801,-7.74417 z m 4.312356,8.03769 c 0,3.6576 -1.151467,6.54755 -4.109156,6.54755 -3.680177,0 -4.651022,-4.42524 -4.651022,-7.17973 0,-3.77049 1.490134,-6.36694 4.2672,-6.36694 2.799645,0 4.492978,3.13832 4.492978,6.99912 z"
         style="font-style:normal;font-variant:normal;font-weight:bold;font-stretch:normal;font-size:22.57777786px;font-family:'Adobe Garamond Pro';-inkscape-font-specification:'Adobe Garamond Pro, Bold';font-variant-ligatures:normal;font-variant-caps:normal;font-variant-numeric:normal;font-feature-settings:normal;text-align:start;writing-mode:lr-tb;text-anchor:start;stroke-width:0.8001;fill:#ff7fef;fill-opacity:0;stroke:#ff2ed5;stroke-opacity:0.61515152;stroke-miterlimit:4;stroke-dasharray:none;stroke-dashoffset:0;stroke-linejoin:round;stroke-linecap:square;paint-order:stroke fill markers"
         id="path41" />
      <path
         d="m 101.97853,252.84208 c 0,-0.88054 0,-0.92569 0.74507,-0.92569 h 1.76107 c 1.15146,0 1.8288,0.27093 2.21262,0.74507 0.22578,0.29351 0.4064,0.83537 0.65475,1.76106 0.27094,0.18062 0.76765,0.15805 0.85796,-0.0903 -0.0452,-1.51271 -0.0452,-3.13831 -0.0452,-3.52213 -0.31609,0.0452 -1.60302,0.0677 -3.048,0.0677 h -4.74133 c -1.083733,0 -2.212622,-0.0226 -3.183466,-0.0677 -0.248356,0.0903 -0.248356,0.65475 -0.04516,0.79022 l 0.451556,0.0677 c 1.016,0.15805 1.151466,0.36125 1.151466,2.46098 v 8.39893 c 0,2.09974 -0.135466,2.25778 -1.151466,2.41583 l -0.745067,0.11289 c -0.180622,0.13546 -0.180622,0.65475 0,0.79022 1.354667,-0.0452 2.483555,-0.0677 3.522133,-0.0677 1.08373,0 2.19004,0.0226 3.58987,0.0677 0.15804,-0.13547 0.15804,-0.65476 0,-0.79022 L 103.13,264.94377 c -1.016,-0.13547 -1.15147,-0.31609 -1.15147,-2.41583 v -3.048 c 0,-0.6096 0.0226,-0.67733 0.63218,-0.67733 h 1.73849 c 1.19662,0 1.44498,0.18062 1.67075,1.26436 l 0.11289,0.54186 c 0.15805,0.2032 0.72249,0.18063 0.85796,-0.0226 -0.0452,-0.67734 -0.0677,-1.51272 -0.0677,-2.34809 0,-0.85796 0.0226,-1.69334 0.0677,-2.41583 -0.13547,-0.2032 -0.69991,-0.22577 -0.85796,-0.0226 l -0.11289,0.54186 c -0.22577,1.10631 -0.47413,1.26436 -1.67075,1.26436 h -1.73849 c -0.6096,0 -0.63218,-0.0677 -0.63218,-0.67733 z"
         style="font-style:normal;font-variant:normal;font-weight:bold;font-stretch:normal;font-size:22.57777786px;font-family:'Adobe Garamond Pro';-inkscape-font-specification:'Adobe Garamond Pro, Bold';font-variant-ligatures:normal;font-variant-caps:normal;font-variant-numeric:normal;font-feature-settings:normal;text-align:start;writing-mode:lr-tb;text-anchor:start;stroke-width:0.8001;fill:#ff7fef;fill-opacity:0;stroke:#ff2ed5;stroke-opacity:0.61515152;stroke-miterlimit:4;stroke-dasharray:none;stroke-dashoffset:0;stroke-linejoin:round;stroke-linecap:square;paint-order:stroke fill markers"
         id="path43" />
      <path
         d="m 114.36985,252.84208 c 0,-0.88054 0,-0.92569 0.74507,-0.92569 h 1.76107 c 1.15146,0 1.8288,0.27093 2.21262,0.74507 0.22578,0.29351 0.4064,0.83537 0.65475,1.76106 0.27094,0.18062 0.76765,0.15805 0.85796,-0.0903 -0.0452,-1.51271 -0.0452,-3.13831 -0.0452,-3.52213 -0.31609,0.0452 -1.60302,0.0677 -3.048,0.0677 h -4.74133 c -1.08373,0 -2.21262,-0.0226 -3.18347,-0.0677 -0.24835,0.0903 -0.24835,0.65475 -0.0451,0.79022 l 0.45155,0.0677 c 1.016,0.15805 1.15147,0.36125 1.15147,2.46098 v 8.39893 c 0,2.09974 -0.13547,2.25778 -1.15147,2.41583 l -0.74506,0.11289 c -0.18063,0.13546 -0.18063,0.65475 0,0.79022 1.35466,-0.0452 2.48355,-0.0677 3.52213,-0.0677 1.08373,0 2.19004,0.0226 3.58987,0.0677 0.15804,-0.13547 0.15804,-0.65476 0,-0.79022 l -0.83538,-0.11289 c -1.016,-0.13547 -1.15147,-0.31609 -1.15147,-2.41583 v -3.048 c 0,-0.6096 0.0226,-0.67733 0.63218,-0.67733 h 1.73849 c 1.19662,0 1.44498,0.18062 1.67075,1.26436 l 0.11289,0.54186 c 0.15805,0.2032 0.72249,0.18063 0.85796,-0.0226 -0.0452,-0.67734 -0.0677,-1.51272 -0.0677,-2.34809 0,-0.85796 0.0226,-1.69334 0.0677,-2.41583 -0.13547,-0.2032 -0.69991,-0.22577 -0.85796,-0.0226 l -0.11289,0.54186 c -0.22577,1.10631 -0.47413,1.26436 -1.67075,1.26436 h -1.73849 c -0.6096,0 -0.63218,-0.0677 -0.63218,-0.67733 z"
         style="font-style:normal;font-variant:normal;font-weight:bold;font-stretch:normal;font-size:22.57777786px;font-family:'Adobe Garamond Pro';-inkscape-font-specification:'Adobe Garamond Pro, Bold';font-variant-ligatures:normal;font-variant-caps:normal;font-variant-numeric:normal;font-feature-settings:normal;text-align:start;writing-mode:lr-tb;text-anchor:start;stroke-width:0.8001;fill:#ff7fef;fill-opacity:0;stroke:#ff2ed5;stroke-opacity:0.61515152;stroke-miterlimit:4;stroke-dasharray:none;stroke-dashoffset:0;stroke-linejoin:round;stroke-linecap:square;paint-order:stroke fill markers"
         id="path45" />
      <path
         d="m 126.76117,252.84208 c 0,-0.88054 0,-0.92569 0.74507,-0.92569 h 1.76106 c 1.15147,0 1.8288,0.27093 2.21263,0.74507 0.22577,0.29351 0.4064,0.83537 0.65475,1.76106 0.27094,0.18062 0.76765,0.15805 0.85796,-0.0903 -0.0452,-1.51271 -0.0452,-3.13831 -0.0452,-3.52213 -0.31609,0.0452 -1.60302,0.0677 -3.048,0.0677 h -4.74133 c -1.08373,0 -2.21262,-0.0226 -3.18347,-0.0677 -0.24835,0.0903 -0.24835,0.65475 -0.0452,0.79022 l 0.45155,0.0677 c 1.016,0.15805 1.15147,0.36125 1.15147,2.46098 v 8.39893 c 0,2.09974 -0.13547,2.25778 -1.15147,2.41583 l -0.74506,0.11289 c -0.18063,0.13546 -0.18063,0.65475 0,0.79022 1.35466,-0.0452 2.48355,-0.0677 3.52213,-0.0677 1.08373,0 2.19004,0.0226 3.58987,0.0677 0.15804,-0.13547 0.15804,-0.65476 0,-0.79022 l -0.83538,-0.11289 c -1.016,-0.13547 -1.15147,-0.31609 -1.15147,-2.41583 v -3.048 c 0,-0.6096 0.0226,-0.67733 0.63218,-0.67733 h 1.73849 c 1.19662,0 1.44498,0.18062 1.67075,1.26436 l 0.11289,0.54186 c 0.15805,0.2032 0.72249,0.18063 0.85796,-0.0226 -0.0452,-0.67734 -0.0677,-1.51272 -0.0677,-2.34809 0,-0.85796 0.0226,-1.69334 0.0677,-2.41583 -0.13547,-0.2032 -0.69991,-0.22577 -0.85796,-0.0226 l -0.11289,0.54186 c -0.22577,1.10631 -0.47413,1.26436 -1.67075,1.26436 h -1.73849 c -0.6096,0 -0.63218,-0.0677 -0.63218,-0.67733 z"
         style="font-style:normal;font-variant:normal;font-weight:bold;font-stretch:normal;font-size:22.57777786px;font-family:'Adobe Garamond Pro';-inkscape-font-specification:'Adobe Garamond Pro, Bold';font-variant-ligatures:normal;font-variant-caps:normal;font-variant-numeric:normal;font-feature-settings:normal;text-align:start;writing-mode:lr-tb;text-anchor:start;stroke-width:0.8001;fill:#ff7fef;fill-opacity:0;stroke:#ff2ed5;stroke-opacity:0.61515152;stroke-miterlimit:4;stroke-dasharray:none;stroke-dashoffset:0;stroke-linejoin:round;stroke-linecap:square;paint-order:stroke fill markers"
         id="path47" />
      <path
         d="m 139.15249,252.84208 c 0,-0.88054 0,-0.92569 0.74507,-0.92569 h 1.76106 c 1.15147,0 1.8288,0.27093 2.21263,0.74507 0.22577,0.29351 0.4064,0.83537 0.65475,1.76106 0.27093,0.18062 0.76765,0.15805 0.85796,-0.0903 -0.0452,-1.51271 -0.0452,-3.13831 -0.0452,-3.52213 -0.31609,0.0452 -1.60302,0.0677 -3.048,0.0677 h -4.74133 c -1.08374,0 -2.21262,-0.0226 -3.18347,-0.0677 -0.24835,0.0903 -0.24835,0.65475 -0.0452,0.79022 l 0.45155,0.0677 c 1.016,0.15805 1.15147,0.36125 1.15147,2.46098 v 8.39893 c 0,2.09974 -0.13547,2.25778 -1.15147,2.41583 l -0.74507,0.11289 c -0.18062,0.13546 -0.18062,0.65475 0,0.79022 1.35467,-0.0452 2.48356,-0.0677 3.52214,-0.0677 1.08373,0 2.19004,0.0226 3.58986,0.0677 0.15805,-0.13547 0.15805,-0.65476 0,-0.79022 l -0.83537,-0.11289 c -1.016,-0.13547 -1.15147,-0.31609 -1.15147,-2.41583 v -3.048 c 0,-0.6096 0.0226,-0.67733 0.63218,-0.67733 h 1.73849 c 1.19662,0 1.44497,0.18062 1.67075,1.26436 l 0.11289,0.54186 c 0.15805,0.2032 0.72249,0.18063 0.85796,-0.0226 -0.0452,-0.67734 -0.0677,-1.51272 -0.0677,-2.34809 0,-0.85796 0.0226,-1.69334 0.0677,-2.41583 -0.13547,-0.2032 -0.69991,-0.22577 -0.85796,-0.0226 l -0.11289,0.54186 c -0.22578,1.10631 -0.47413,1.26436 -1.67075,1.26436 h -1.73849 c -0.6096,0 -0.63218,-0.0677 -0.63218,-0.67733 z"
         style="font-style:normal;font-variant:normal;font-weight:bold;font-stretch:normal;font-size:22.57777786px;font-family:'Adobe Garamond Pro';-inkscape-font-specification:'Adobe Garamond Pro, Bold';font-variant-ligatures:normal;font-variant-caps:normal;font-variant-numeric:normal;font-feature-settings:normal;text-align:start;writing-mode:lr-tb;text-anchor:start;stroke-width:0.8001;fill:#ff7fef;fill-opacity:0;stroke:#ff2ed5;stroke-opacity:0.61515152;stroke-miterlimit:4;stroke-dasharray:none;stroke-dashoffset:0;stroke-linejoin:round;stroke-linecap:square;paint-order:stroke fill markers"
         id="path49" />
    </g>
  </g>
</svg>
